<?xml version="1.0" encoding="utf-8"?>
<!-- Generator: Adobe Illustrator 16.0.3, SVG Export Plug-In . SVG Version: 6.00 Build 0)  -->
<!DOCTYPE svg PUBLIC "-//W3C//DTD SVG 1.1//EN" "http://www.w3.org/Graphics/SVG/1.1/DTD/svg11.dtd">
<svg version="1.1" id="Layer_1" xmlns="http://www.w3.org/2000/svg" xmlns:xlink="http://www.w3.org/1999/xlink" x="0px" y="0px"
	 width="359.032px" height="187.863px" viewBox="0 0 359.032 187.863" enable-background="new 0 0 359.032 187.863"
	 xml:space="preserve">
<g>
	<rect y="104.784" fill="#A1A3A2" width="13.392" height="65.176"/>
	<path fill="#A1A3A2" d="M67.972,125.319v44.641H54.579v-4.195c-2.946,3.393-7.321,5.445-13.303,5.445
		c-11.696,0-21.339-10.268-21.339-23.57s9.643-23.57,21.339-23.57c5.982,0,10.356,2.053,13.303,5.445v-4.195H67.972z M54.579,147.64
		c0-6.697-4.464-10.893-10.624-10.893c-6.161,0-10.626,4.195-10.626,10.893s4.465,10.893,10.626,10.893
		C50.115,158.532,54.579,154.337,54.579,147.64"/>
	<polygon fill="#A1A3A2" points="110.972,157.462 110.972,169.96 75.257,169.96 75.257,161.032 92.132,137.819 76.151,137.819 
		76.151,125.317 110.078,125.317 110.078,134.247 93.204,157.462 	"/>
	<path fill="#A1A3A2" d="M160.766,125.319l-15.268,43.303c-5,14.195-12.947,19.82-25.446,19.195v-12.5
		c6.25,0,9.195-1.963,11.161-7.41l-17.768-42.588h14.731l9.912,27.32l8.393-27.32H160.766z"/>
	<path fill="#A1A3A2" d="M212.57,147.64c0,13.303-9.644,23.57-21.34,23.57c-5.981,0-10.357-2.053-13.303-5.445v4.195h-13.394
		v-62.498h13.394v22.053c2.945-3.393,7.321-5.445,13.303-5.445C202.927,124.069,212.57,134.337,212.57,147.64 M199.177,147.64
		c0-6.697-4.464-10.893-10.625-10.893s-10.624,4.195-10.624,10.893s4.463,10.893,10.624,10.893S199.177,154.337,199.177,147.64"/>
	<path fill="#A1A3A2" d="M261.408,125.319v44.641h-13.393v-4.195c-2.411,3.303-6.875,5.445-12.768,5.445
		c-9.019,0-16.696-6.428-16.696-18.482v-27.408h13.393v25.445c0,5.535,3.481,8.125,7.768,8.125c4.91,0,8.304-2.857,8.304-9.195
		v-24.375H261.408z"/>
	<path fill="#A1A3A2" d="M311.721,124.425v0.895h8.304v12.855h-8.304v31.785h-13.393v-31.785h-11.607v31.785h-13.393v-31.785h-5.981
		v-12.855h5.981c0-12.5,6.875-20,21.696-19.107v12.857c-5-0.447-8.304,1.07-8.304,6.25h11.607v-0.895c0-12.5,6.874-20,21.696-19.105
		v12.855C315.024,117.729,311.721,119.247,311.721,124.425"/>
	<path fill="#A1A3A2" d="M359.032,156.567c0,10.268-8.928,14.643-18.571,14.643c-8.928,0-15.715-3.393-19.196-10.625l11.607-6.605
		c1.161,3.393,3.661,5.268,7.589,5.268c3.215,0,4.821-0.982,4.821-2.77c0-4.91-21.964-2.32-21.964-17.768
		c0-9.73,8.215-14.641,17.5-14.641c7.231,0,13.66,3.213,17.41,9.553l-11.429,6.16c-1.25-2.32-3.035-3.928-5.981-3.928
		c-2.321,0-3.75,0.893-3.75,2.5C337.068,143.444,359.032,140.05,359.032,156.567"/>
	<path fill="#CFB87C" d="M284.995,75.115c-1.579-0.187-3.9-0.53-6.852-0.828c-2.947-0.32-6.531-0.742-10.639-1.082
		c-2.056-0.183-4.244-0.382-6.549-0.589c-1.268-0.116-2.578-0.211-3.916-0.303c0.407-32.187-47.021-47.026-53.945-49.021
		c-0.571-0.164-1.109-0.428-1.596-0.768c-37.18-25.99-58.3-6.895-59.411-5.833l-2.139-1.542c-0.427-0.311-0.755-0.75-0.912-1.256
		c-2.068-6.777-6.831-12.998-7.133-13.392c-0.406-0.518-1.14-0.663-1.716-0.307c-0.476,0.291-0.683,0.875-0.58,1.422
		c0.498,2.523,0.846,4.762,1.049,6.727c-2.943-2.217-11.614-7.395-16.484,4.008l-10.121,7.667c0,0-3.763,1.103-3.618,4.601
		l-5.196,19.308c-0.138,0.513-0.436,1.324-0.669,1.801c-1.222,2.499-4.369,11.162,8.178,15.22l3.808,11.029
		c-0.406,0.028-0.824,0.057-1.222,0.086c-2.528,0.188-4.953,0.332-7.258,0.535c-2.304,0.212-4.493,0.41-6.548,0.593
		c-4.108,0.344-7.693,0.767-10.643,1.085c-2.952,0.304-5.269,0.647-6.847,0.834c-1.583,0.223-2.425,0.34-2.425,0.34v0.696
		c0,0,13.486,0.075,33.721,0.187c12.985,0.029,28.752,0.062,45.512,0.096c-0.062-0.635-0.124-1.197-0.173-1.649
		c-0.075-0.672-0.129-1.087-0.129-1.087s0.178,0.415,0.455,1.087c0.183,0.452,0.415,1.015,0.664,1.653c0.435,0,0.869,0,1.306,0.004
		c0.001-0.001,0.002-0.002,0.004-0.004c-0.028-0.551-0.062-1.106-0.104-1.653c-0.173-2.363-0.431-4.489-0.483-4.92
		c-0.01-0.05-0.013-0.086-0.013-0.086s0.016,0.037,0.037,0.086c0.183,0.431,1.081,2.549,1.943,4.92
		c0.1,0.273,0.198,0.551,0.294,0.828c0.096,0.27,0.188,0.544,0.278,0.812c0.037-0.36,0.066-0.783,0.075-1.243V74.78
		c0.003-1.413-0.108-3.138-0.295-4.974c-0.095-0.958-0.207-1.94-0.336-2.926c-0.759-5.91-1.923-11.792-1.994-12.157
		c0.125,0.348,2.099,6.002,3.698,11.817c0.294,1.082,0.58,2.168,0.833,3.229c0.435,1.791,0.783,3.507,0.981,5.012
		c0.013,0.078,0.025,0.161,0.033,0.24c0.059,0.501,0.095,0.974,0.116,1.426c7.075,0.016,14.274,0.032,21.478,0.045
		c3.78-0.008,7.561-0.017,11.319-0.02h0.019c0.528-0.005,1.062-0.005,1.59-0.005l1.011-1.687l2.715-4.518
		c-0.058-0.191-0.107-0.382-0.158-0.572c-0.165-0.651-0.285-1.286-0.377-1.957c-0.137-1.102-0.165-2.221-0.07-3.344
		c0.096-0.563,0.129-1.127,0.299-1.679l0.219-0.829l0.32-0.805c0.183-0.543,0.526-1.024,0.796-1.529
		c0.327-0.468,0.683-0.928,1.057-1.355c0.418-0.381,0.8-0.816,1.261-1.139l1.28-0.9c0.393-0.298,0.882-0.58,1.193-0.887
		c0.311-0.323,0.646-0.567,0.962-0.948c0.646-0.709,1.247-1.493,1.865-2.304c0.311-0.407,0.613-0.812,0.953-1.219
		c0.332-0.406,0.658-0.812,1.044-1.189l0.56-0.577c0.19-0.186,0.414-0.343,0.621-0.518l0.635-0.505
		c0.224-0.157,0.468-0.278,0.7-0.418l0.704-0.402c0.236-0.133,0.502-0.199,0.75-0.299c0.511-0.161,1-0.418,1.529-0.476l1.56-0.291
		l1.566-0.066l0.779-0.029c0.261,0.004,0.518,0.038,0.774,0.054l1.542,0.128c1.023,0.083,2.023,0.336,3.03,0.493
		c0.51,0.079,1.007,0.191,1.495,0.332l1.48,0.381l1.479,0.386l1.45,0.468l2.901,0.941l-2.95-0.763l-1.472-0.376l-1.492-0.291
		l-1.488-0.294c-0.497-0.108-0.994-0.186-1.496-0.232c-1.003-0.095-1.997-0.286-3-0.302l-1.501-0.034
		c-0.249,0-0.498-0.016-0.746-0.008l-0.738,0.074l-1.47,0.149l-1.418,0.356c-0.485,0.079-0.896,0.344-1.344,0.51
		c-0.211,0.104-0.447,0.17-0.642,0.302l-0.598,0.39c-0.194,0.137-0.397,0.249-0.584,0.397l-0.526,0.48
		c-0.174,0.163-0.355,0.307-0.518,0.485l-0.469,0.547c-0.323,0.353-0.608,0.754-0.896,1.157c-0.29,0.389-0.567,0.816-0.85,1.235
		c-0.563,0.837-1.144,1.703-1.815,2.54c-0.311,0.423-0.758,0.837-1.144,1.252c-0.397,0.414-0.792,0.663-1.189,1.002l-1.156,0.92
		c-0.357,0.282-0.622,0.647-0.941,0.958c-0.265,0.356-0.514,0.721-0.745,1.095c-0.17,0.405-0.424,0.771-0.53,1.202l-0.208,0.625
		l-0.128,0.655c-0.112,0.427-0.1,0.891-0.153,1.331c-0.018,0.903,0.058,1.819,0.228,2.723c0.153,0.833,0.423,1.72,0.713,2.437
		c0.021,0.046,0.037,0.1,0.058,0.145c0.178,0.418,0.149,0.871-0.042,1.244l-0.032,0.058l-1.873,3.602l-0.874,1.678
		c0.004,0.004,0.011,0.009,0.016,0.014l0,0h2.031l0,0l1.488-1.691l1.882-2.144l-0.858,2.781l-0.327,1.054h2.143l1.476-1.691
		l0.336-0.387l-0.117,0.387l-0.514,1.661c18.353-0.041,35.714-0.078,49.807-0.107c20.229-0.111,33.721-0.187,33.721-0.187v-0.696
		C287.42,75.451,286.574,75.333,284.995,75.115 M114.219,33.917c-0.241,0.944-1.545,1.429-2.914,1.085
		c-1.368-0.348-2.284-1.397-2.043-2.342c0.24-0.944,1.541-1.429,2.91-1.081C113.543,31.924,114.459,32.972,114.219,33.917
		 M136.626,23.282c-1.659,3.432-6.151,5.215-13.351,5.293h-0.062c-2.487,0-4.078-1.737-4.368-3.465
		c-0.129-0.75-0.17-2.574,2.139-3.34c1.119-0.374,2.437-0.382,3.83-0.386c2.383-0.008,5.085-0.021,6.872-2.201
		c1.396-1.703,1.98-4.508,1.761-8.732c-0.054-1.027-0.152-2.135-0.298-3.333c0.846,1.459,1.725,3.137,2.463,4.895
		C137.222,15.859,138.166,20.095,136.626,23.282"/>
</g>
</svg>
