<svg xmlns="http://www.w3.org/2000/svg" viewBox="0 0 1063.26 72">
  <defs>
    <style>
      .cls-1 {
        fill: #aae0f8;
      }

      .cls-2 {
        fill: #fff02a;
      }
    </style>
  </defs>
  <title>h1_1</title>
  <g id="Layer_2" data-name="Layer 2">
    <g id="Layer_3" data-name="Layer 3">
      <polygon class="cls-1" points="1061.38 72 0 72 1.91 0 1063.26 1.52 1061.38 72"/>
      <g>
        <path class="cls-2" d="M354.42,41.35l-.1-.16c-.57-.83-.16-2.29,1.09-3.33s3,.26,1.51,2.65l1.61-.21c2.34-.26,4.58-.62,4.63,1.82.05,1.92-3,5.2-4.68,7.49-1.14,1.56-.83,2.76.47,2.76,3.54,0,8.06-5.93,10.19-9.26.57-.83,1-.73,1.25-.26s.1,1-.36,1.77c-1.51,2.5-6.45,9.88-11.54,9.88-3.43,0-4.68-3.64-2.86-6.5a43.92,43.92,0,0,1,3.64-4.58c.88-1,.68-1.72-.94-1.51a10.61,10.61,0,0,1-2.39.16c-2.34,4.68-4.94,9.2-14.56,12.69-2.91,4.94-5.88,8.42-10.14,8.42A3.31,3.31,0,0,1,327.59,60c0-1.92,1.56-3.74,4.06-4.73,1.82-.83,4.37-1.2,7.28-1.87,1.51-2.6,3-5.62,4.47-8.48-1.82,2.29-4.37,4.58-7.9,4.58-4.37,0-8.63-4.42-4.42-14.25,4.42-10.4,11.86-17.11,18.72-17.11,9,0,8.06,11.28,1.4,13.05-2.13.57-3.07-.26-3.07-1a1.05,1.05,0,0,1,.88-1.09c.52-.05,1.3,0,1.82-.1,4.26-.83,5.1-8.89-.88-8.89-4.73,0-11,5.88-15.08,15.44-4.16,9.72-1.61,11.86,1.14,11.86,4.42,0,8.06-5.67,10.35-9.83l1.46-2.7a1.1,1.1,0,0,1,1.09-.62h2c.62,0,.78.36.42,1s-1.66,4-5,10.35c-1.25,2.34-2.39,4.63-3.48,6.71C349.22,49.36,351.77,45.88,354.42,41.35ZM337.36,55.81a19.87,19.87,0,0,0-5.3,1.61c-1.4.68-2.24,1.56-2.24,2.44s.47,1.35,1.61,1.35C333.31,61.22,335.33,59,337.36,55.81Z"/>
        <path class="cls-2" d="M366.48,46.08C368.66,42,372.2,40,375.17,40c1.87,0,2.86,1,3,2.13A3.85,3.85,0,0,1,377,45c-2.08,2.18-5.56,2.5-7.64,2.39a12.44,12.44,0,0,0-.42,1.3c-.47,1.82.05,3.8,2.65,3.8,4.32,0,9.26-6,11.39-9.36.57-.83,1-.73,1.25-.26s.16,1-.36,1.77c-1.51,2.5-7.23,9.88-12.9,9.88C366.12,54.51,364.3,50.24,366.48,46.08Zm4-.47a8.09,8.09,0,0,0,5-1.61c1.09-.94.88-2,.05-2a4.53,4.53,0,0,0-2.91,1.35A12.7,12.7,0,0,0,370.43,45.62Z"/>
        <path class="cls-2" d="M380.36,46.08C382.55,42,386.08,40,389,40c1.87,0,2.86,1,3,2.13A3.85,3.85,0,0,1,390.92,45c-2.08,2.18-5.56,2.5-7.64,2.39a12.44,12.44,0,0,0-.42,1.3c-.47,1.82.05,3.8,2.65,3.8,4.32,0,9.26-6,11.39-9.36.57-.83,1-.73,1.25-.26s.16,1-.36,1.77c-1.51,2.5-7.23,9.88-12.9,9.88C380,54.51,378.18,50.24,380.36,46.08Zm4-.47a8.09,8.09,0,0,0,5-1.61c1.09-.94.88-2,.05-2a4.54,4.54,0,0,0-2.91,1.35A12.64,12.64,0,0,0,384.32,45.62Z"/>
        <path class="cls-2" d="M397.37,42.13h-1.3c-.83,0-1.09-.31-.83-.83s.68-.52,1.56-.52h1.4l2.34-3.69a1.15,1.15,0,0,1,1.09-.62h1.92c.63,0,.78.31.36,1L402,40.78h2.34c.57,0,1.14,0,.94.73s-.83.78-1.61.78h-2.6c-1.61,2.6-3.38,5.51-4.06,6.71-1.3,2.39-.52,3.54.88,3.54,3,0,8.37-6.24,10.5-9.41.57-.83,1-.73,1.25-.26a1.52,1.52,0,0,1-.21,1.77c-1.46,2-7.33,9.88-12.43,9.88-4.06,0-5.25-3.17-3.12-6.76Z"/>
        <path class="cls-2" d="M409.28,41.4a1.15,1.15,0,0,1,1.09-.62h2c.62,0,.73.36.36,1-.62,1.2-3.43,5.72-4.84,8.16-.94,1.66,0,2.39.78,2.39,3.54,0,8.06-5.93,10.19-9.26.57-.83,1-.73,1.25-.26s.16,1-.36,1.77c-1.51,2.5-6.45,9.88-11.54,9.88-3.28,0-4.58-3.43-2.81-6.71C406.73,45.41,409.07,41.82,409.28,41.4Zm5.36-9.21a1.91,1.91,0,0,1,2,2,1.94,1.94,0,0,1-2,2,2,2,0,0,1-2-2A2,2,0,0,1,414.63,32.2Z"/>
        <path class="cls-2" d="M421.08,45.25c2.76-3,5.56-4.84,7.7-4.84,1.77,0,3,1,3,2.7,0,2.34-2.76,5.15-4.26,7.18-1.2,1.56-.57,2.39.21,2.39,3.54,0,8.27-6.19,10.45-9.57.57-.83,1-.68,1.2-.26.31.57.16,1-.31,1.82-1.51,2.44-6.66,10-11.75,10-2.29,0-3.64-1.2-3.64-2.91,0-2.6,1.87-4.11,4-7,.88-1.14.78-2-.16-2-1.4,0-5.51,3.12-7.9,6.45a40.79,40.79,0,0,0-2.91,4.73,1,1,0,0,1-1.09.62h-1.4c-.62,0-.78-.36-.36-1,2-3.64,4-8.32,6-12.43a1.1,1.1,0,0,1,1.09-.62h2c.57,0,.57.42.16,1.14C422.64,42.5,421.86,43.85,421.08,45.25Z"/>
        <path class="cls-2" d="M444.06,56.17c-3,5.51-6.86,11.39-11.75,11.39a3.38,3.38,0,0,1-3.64-3.17c0-3,2.24-4.73,5.67-6.14,2.55-1.09,4.78-1.87,6.92-2.76.78-1.25,1.56-2.7,2.24-4.06-1.4,1.72-3.12,3.12-5.1,3.12-3.43,0-4.52-4.68-2.24-8.79,2.7-4.89,6.14-5.93,8.53-5.93a3.23,3.23,0,0,1,3.22,2.44l.47-.88a1.1,1.1,0,0,1,1.09-.62h2c.62,0,.78.36.42,1.09L447.34,50l-1.87,3.69A28.06,28.06,0,0,0,456.7,43.12c.57-.83,1-.68,1.25-.26.26.57.1,1-.36,1.82-1.51,2.44-4.84,7.64-13.42,11.49ZM439.85,58c-3.59,1.4-6.6,2.5-8.06,3.85-1.72,1.61-1.3,3.74.73,3.74S437.25,62.31,439.85,58Zm6.55-13.16c.78-1.56.1-3-1.25-3a4.54,4.54,0,0,0-3.07,1.46,11.89,11.89,0,0,0-3.48,5.36c-.52,2-.52,3.64.83,3.64C441.93,52.32,444.43,48.11,446.4,44.83Z"/>
        <path class="cls-2" d="M452.49,48.84a7.77,7.77,0,0,1,.73-.94A59.66,59.66,0,0,0,458,41.09c1.4-1.92,2.18-2.55,3.07-2.7.68-.1,1.72.16,1.66,1-.05,1-1.14,1-1,1.66,0,0,1,2.76,1.56,4.58.78,2.7.57,5-1.14,6.55a13.64,13.64,0,0,0,5-4.42c.62-.83,1-.73,1.25-.31.31.57.21,1.09-.31,1.82a13,13,0,0,1-10.71,5.56C451.5,54.82,451.29,50.61,452.49,48.84Zm3.22-1.09a1.42,1.42,0,0,1-.36,2.34c-1.25.78-.52,3,1.2,3,1.46,0,2.6-1,3.33-2.65,1.2-2.76-.05-6.14-.42-8.11C458.57,43.64,457.11,45.82,455.71,47.75Z"/>
        <path class="cls-2" d="M479.68,40.78h1.56l.1-.26c3.07-5.56,6.45-12.79,10.71-12.79,2.7,0,4,3,1,6.4a35.65,35.65,0,0,1-8.11,6.66h3.85c.62,0,1.2,0,1,.73a1.59,1.59,0,0,1-1.66,1c-.47,0-2.55,0-4.63-.05-3.85,7.33-8.11,15.76-10.66,20.65a1.14,1.14,0,0,1-1.09.78h-2c-.62,0-.73-.47-.31-1.2,2.18-3.85,6.87-12.79,10.92-20.33H479c-.88,0-1.09-.57-.88-1C478.49,40.67,478.8,40.78,479.68,40.78Zm5.67-2c1.51-1.14,3.12-2.6,4.11-3.48,4.63-4.26,3.48-5.72,2.5-5.72S489.3,31.52,485.35,38.75Z"/>
        <path class="cls-2" d="M496.37,52.38c3.54,0,8.06-5.93,10.19-9.26.57-.83,1-.73,1.25-.26s.1,1-.36,1.77c-1.51,2.5-6.45,9.88-11.54,9.88-3.43,0-4.84-3.59-3-6.5a31.22,31.22,0,0,1,3.64-4.58c.83-1,.73-1.66-.78-1.51a7.81,7.81,0,0,1-2.08.16c-1.2,2.5-4.06,7.59-7.07,10.45a4.13,4.13,0,0,1-3.07,1.56c-1.09-.05-1.4-1-.21-1.92,3.74-2.7,6.24-6.14,8.63-10.71l-.21-.21c-.57-.73-.31-2.34.88-3.38s3.12-.05,1.72,2.65c-.05.05-.05,0,1.61-.21,2.34-.26,4.58-.62,4.63,1.82.05,1.92-3,5.2-4.68,7.49C494.76,51.18,495.07,52.38,496.37,52.38Z"/>
        <path class="cls-2" d="M516.39,47.43c-1.61,3.38-5.41,7.07-8.74,7.07-4.37,0-5.93-4.21-3.64-8.42,2.39-4.37,6-6.08,8.68-6.08s4.52,1.46,4.52,4.42a7.19,7.19,0,0,1-.21,1.35,6.21,6.21,0,0,0,1,.05A7.46,7.46,0,0,0,523.57,43c.47-.57.88-.62,1.14-.21a1.8,1.8,0,0,1-.42,1.87,8.51,8.51,0,0,1-6.71,2.91C517.28,47.54,516.86,47.49,516.39,47.43Zm-2.18-1.09L513.9,46a2.53,2.53,0,0,1-.52-1.66,2.57,2.57,0,0,1,1.09-2.18,1.12,1.12,0,0,0-1-.47c-2.7,0-6,4.11-7,7-.73,2.13-.26,3.9,1.72,3.9S513,49.41,514.21,46.34Z"/>
        <path class="cls-2" d="M526,44c2.18-2.29,4.16-3.59,6.08-3.59A2.58,2.58,0,0,1,535,42.91a3.23,3.23,0,0,1-.21,1.2c2.24-2.5,4.21-3.74,6.19-3.74a2.7,2.7,0,0,1,3,2.76c0,2.29-2.65,5.1-4.11,7.12-1.2,1.56-.57,2.44.31,2.44,1.35,0,4-1.51,6.5-4.84.62-.78,1-.73,1.25-.26a1.59,1.59,0,0,1-.36,1.77c-1.66,2.39-4.58,5.3-8.06,5.3-2.29,0-3.48-1.25-3.48-3,0-2.39,1.72-4.11,3.8-6.92.88-1.14.52-2.18-.42-2.18-1.4,0-3.12,1.61-5,3.9a60.26,60.26,0,0,0-4.68,7v-.05l-.21.31a1.1,1.1,0,0,1-1.09.62h-1.72c-.62,0-.73-.42-.36-1.09,2.5-4.21,3.12-5.41,4.73-8.53.62-1.25.42-2.18-.52-2.18-1.4,0-3.48,1.72-5.41,4.06a23.29,23.29,0,0,0-3.07,4.78l-1.2,2.44a1,1,0,0,1-1.09.62h-1.4c-.62,0-.78-.36-.36-1,2-3.64,4-8.32,6-12.43a1.1,1.1,0,0,1,1.09-.62h2c.57,0,.57.42.16,1.14Z"/>
        <path class="cls-2" d="M560,42.13h-1.3c-.83,0-1.09-.31-.83-.83s.68-.52,1.56-.52h1.4l2.34-3.69a1.15,1.15,0,0,1,1.09-.62h1.92c.63,0,.78.31.36,1l-1.92,3.28h2.34c.57,0,1.14,0,.94.73s-.83.78-1.61.78h-2.6c-1.61,2.6-3.38,5.51-4.06,6.71-1.3,2.39-.52,3.54.88,3.54,3,0,8.37-6.24,10.5-9.41.57-.83,1-.73,1.25-.26a1.52,1.52,0,0,1-.21,1.77c-1.46,2-7.33,9.88-12.43,9.88-4.06,0-5.25-3.17-3.12-6.76Z"/>
        <path class="cls-2" d="M566.62,54.4h-1.2c-.62,0-.78-.36-.42-1,4.42-7.8,8.22-14.35,12.64-21.94a1.1,1.1,0,0,1,1.09-.62h2c.62,0,.73.36.36,1s-4.89,7.75-7.28,11.7c2-1.82,4.11-3.12,6.08-3.12,1.77,0,3,1,3,2.7,0,2.34-2.76,5.15-4.21,7.18-1.2,1.56-.57,2.39.21,2.39,3.48,0,8.22-6.19,10.35-9.57.57-.83,1-.68,1.25-.26.31.57.16,1-.31,1.82-1.56,2.44-6.66,10-11.75,10-2.29,0-3.59-1.2-3.59-2.91,0-2.6,1.82-4.11,3.9-7,.83-1.14.78-2-.21-2-1.35,0-5.3,2.91-7.85,6.45-1.87,2.65-2.91,4.52-2.91,4.52A1.21,1.21,0,0,1,566.62,54.4Z"/>
        <path class="cls-2" d="M599.59,47.59c.62-.78,1-.68,1.25-.26.31.57.21,1.09-.31,1.82-1.66,2.34-5.2,5.36-9.36,5.36-4.89,0-6.76-4.26-4.58-8.42S592.36,40,595.33,40c1.87,0,2.86,1,3,2.13A3.85,3.85,0,0,1,597.2,45c-2.08,2.18-5.56,2.5-7.59,2.39a5.68,5.68,0,0,0-.47,1.3c-.47,1.82.05,3.8,2.65,3.8C594.13,52.48,597.15,50.92,599.59,47.59Zm-8.84-2A8.07,8.07,0,0,0,595.64,44c1-.94.88-2,.05-2a4.76,4.76,0,0,0-2.86,1.35A12,12,0,0,0,590.75,45.62Z"/>
        <path class="cls-2" d="M620.55,55.39c-5.41,0-9.41-3.59-8.22-8.74a11,11,0,0,1,10.19-8.16c2.6,0,4.11,1.4,4.11,3.9,0,2.81-2.13,5.77-4.84,7.38-1.56.94-2.44-.88-1.25-1.66,2.65-1.87,4-4.21,4-5.51s-.68-2.13-2-2.13c-1.56,0-4.42,1-6.71,4.52-2.18,3.38-1.3,8.42,4.52,8.42,6,0,9.15-6.24,12.84-13.78-5.41-.05-8.48-2.86-8.89-6.5-.47-3.85,2.18-8.37,7.38-9.62,3.48-.88,7.28-.26,10.19.1,2.24-3.28,4.58-5.62,7-5.62a2.33,2.33,0,0,1,2.6,2.39c0,2.55-2.81,5.41-7.75,5.41-.83,1.61-1.77,3.48-2.86,5.67C634.69,44,630.69,55.39,620.55,55.39Zm13.68-17.79.73-1.4c1.66-3.28,3.59-7.23,5.67-10.61-2.81-.31-6.29-.57-9.15.73s-5.1,4.89-4.26,7.9C627.83,36.51,630.37,37.87,634.22,37.61Zm10.56-13.73c2.24-.05,4.63-1.61,4.63-3.22a.71.71,0,0,0-.78-.78C647.48,19.87,646.29,21.28,644.78,23.88Z"/>
        <path class="cls-2" d="M641.61,45.25c2.76-3,5.56-4.84,7.7-4.84,1.77,0,3,1,3,2.7,0,2.34-2.76,5.15-4.26,7.18-1.2,1.56-.57,2.39.21,2.39,3.54,0,8.27-6.19,10.45-9.57.57-.83,1-.68,1.2-.26.31.57.16,1-.31,1.82-1.51,2.44-6.66,10-11.75,10-2.29,0-3.64-1.2-3.64-2.91,0-2.6,1.87-4.11,4-7,.88-1.14.78-2-.16-2-1.4,0-5.51,3.12-7.9,6.45a40.79,40.79,0,0,0-2.91,4.73,1,1,0,0,1-1.09.62h-1.4c-.62,0-.78-.36-.36-1,2-3.64,4-8.32,6-12.43a1.1,1.1,0,0,1,1.09-.62h2c.57,0,.57.42.16,1.14C643.17,42.5,642.39,43.85,641.61,45.25Z"/>
        <path class="cls-2" d="M659.18,42.13h-1.3c-.83,0-1.09-.31-.83-.83s.68-.52,1.56-.52H660l2.34-3.69a1.15,1.15,0,0,1,1.09-.62h1.92c.63,0,.78.31.36,1l-1.92,3.28h2.34c.57,0,1.14,0,.94.73s-.83.78-1.61.78h-2.6c-1.61,2.6-3.38,5.51-4.06,6.71-1.3,2.39-.52,3.54.88,3.54,3,0,8.37-6.24,10.5-9.41.57-.83,1-.73,1.25-.26a1.52,1.52,0,0,1-.21,1.77c-1.46,2-7.33,9.88-12.43,9.88-4.06,0-5.25-3.17-3.12-6.76Z"/>
        <path class="cls-2" d="M672.08,54.51c-4.89,0-6.71-4.26-4.52-8.42S673.27,40,676.24,40c1.87,0,2.86,1,3,2.13A3.85,3.85,0,0,1,678.11,45c-2.08,2.18-5.56,2.5-7.64,2.39a12.44,12.44,0,0,0-.42,1.3c-.47,1.82.05,3.8,2.65,3.8,4.21,0,8.94-5.41,12.12-11.13l-.1-.16c-.57-.83-.16-2.29,1.09-3.33s3,.26,1.51,2.65l1.61-.21c2.34-.26,4.58-.62,4.63,1.82.05,1.92-3,5.2-4.68,7.49-1.14,1.56-.83,2.76.47,2.76,3.54,0,8.06-5.93,10.19-9.26.57-.83,1-.73,1.25-.26s.1,1-.36,1.77c-1.51,2.5-6.45,9.88-11.54,9.88-3.43,0-4.68-3.64-2.86-6.5a43.8,43.8,0,0,1,3.64-4.58c.88-1,.68-1.72-.94-1.51a10.6,10.6,0,0,1-2.39.16C682.74,48.58,677.48,54.51,672.08,54.51Zm-.57-8.89a8.09,8.09,0,0,0,5-1.61c1.09-.94.88-2,.05-2a4.54,4.54,0,0,0-2.91,1.35A12.64,12.64,0,0,0,671.5,45.62Z"/>
        <path class="cls-2" d="M701.72,45.25c2.76-3,5.56-4.84,7.7-4.84,1.77,0,3,1,3,2.7,0,2.34-2.76,5.15-4.26,7.18-1.2,1.56-.57,2.39.21,2.39,3.54,0,8.27-6.19,10.45-9.57.57-.83,1-.68,1.2-.26.31.57.16,1-.31,1.82-1.51,2.44-6.66,10-11.75,10-2.29,0-3.64-1.2-3.64-2.91,0-2.6,1.87-4.11,4-7,.88-1.14.78-2-.16-2-1.4,0-5.51,3.12-7.9,6.45a40.79,40.79,0,0,0-2.91,4.73,1,1,0,0,1-1.09.62h-1.4c-.62,0-.78-.36-.36-1,2-3.64,4-8.32,6-12.43a1.1,1.1,0,0,1,1.09-.62h2c.57,0,.57.42.16,1.14C703.28,42.5,702.5,43.85,701.72,45.25Z"/>
        <path class="cls-2" d="M716.17,46.08C718.36,42,721.89,40,724.86,40c1.87,0,2.86,1,3,2.13A3.85,3.85,0,0,1,726.73,45c-2.08,2.18-5.56,2.5-7.64,2.39a12.44,12.44,0,0,0-.42,1.3c-.47,1.82.05,3.8,2.65,3.8,4.32,0,9.26-6,11.39-9.36.57-.83,1-.73,1.25-.26s.16,1-.36,1.77c-1.51,2.5-7.23,9.88-12.9,9.88C715.81,54.51,714,50.24,716.17,46.08Zm4-.47a8.09,8.09,0,0,0,5-1.61c1.09-.94.88-2,.05-2a4.54,4.54,0,0,0-2.91,1.35A12.64,12.64,0,0,0,720.12,45.62Z"/>
        <path class="cls-2" d="M729.38,48.42l4.26-7h-1c-.88,0-1.09-.31-.88-.78.36-.62.68-.52,1.61-.52h1.14l2.29-3.69a1.1,1.1,0,0,1,1.09-.62h1.87c.63,0,.78.36.42,1-.16.31-.94,1.61-2,3.28h2.65c.62,0,1.2,0,1,.68s-.83.78-1.66.78c-.36,0-1.56,0-2.81-.05L732.86,49c-1.2,2.18-.52,3.54.88,3.54,1.66,0,4.21-1.46,6.66-4.78.62-.83,1-.73,1.25-.31a1.64,1.64,0,0,1-.31,1.82c-1.72,2.39-5,5.25-8.48,5.25C728.81,54.51,727.77,51.18,729.38,48.42Z"/>
      </g>
      <g>
        <path d="M351.42,38.35l-.1-.16c-.57-.83-.16-2.29,1.09-3.33s3,.26,1.51,2.65l1.61-.21c2.34-.26,4.58-.62,4.63,1.82.05,1.92-3,5.2-4.68,7.49-1.14,1.56-.83,2.76.47,2.76,3.54,0,8.06-5.93,10.19-9.26.57-.83,1-.73,1.25-.26s.1,1-.36,1.77c-1.51,2.5-6.45,9.88-11.54,9.88-3.43,0-4.68-3.64-2.86-6.5a43.92,43.92,0,0,1,3.64-4.58c.88-1,.68-1.72-.94-1.51a10.61,10.61,0,0,1-2.39.16c-2.34,4.68-4.94,9.2-14.56,12.69-2.91,4.94-5.88,8.42-10.14,8.42A3.31,3.31,0,0,1,324.59,57c0-1.92,1.56-3.74,4.06-4.73,1.82-.83,4.37-1.2,7.28-1.87,1.51-2.6,3-5.62,4.47-8.48-1.82,2.29-4.37,4.58-7.9,4.58-4.37,0-8.63-4.42-4.42-14.25,4.42-10.4,11.86-17.11,18.72-17.11,9,0,8.06,11.28,1.4,13.05-2.13.57-3.07-.26-3.07-1a1.05,1.05,0,0,1,.88-1.09c.52-.05,1.3,0,1.82-.1,4.26-.83,5.1-8.89-.88-8.89-4.73,0-11,5.88-15.08,15.44-4.16,9.72-1.61,11.86,1.14,11.86,4.42,0,8.06-5.67,10.35-9.83l1.46-2.7a1.1,1.1,0,0,1,1.09-.62h2c.62,0,.78.36.42,1s-1.66,4-5,10.35c-1.25,2.34-2.39,4.63-3.48,6.71C346.22,46.36,348.77,42.88,351.42,38.35ZM334.36,52.81a19.87,19.87,0,0,0-5.3,1.61c-1.4.68-2.24,1.56-2.24,2.44s.47,1.35,1.61,1.35C330.31,58.22,332.33,56,334.36,52.81Z"/>
        <path d="M363.48,43.08C365.66,39,369.2,37,372.17,37c1.87,0,2.86,1,3,2.13A3.85,3.85,0,0,1,374,42c-2.08,2.18-5.56,2.5-7.64,2.39a12.44,12.44,0,0,0-.42,1.3c-.47,1.82.05,3.8,2.65,3.8,4.32,0,9.26-6,11.39-9.36.57-.83,1-.73,1.25-.26s.16,1-.36,1.77c-1.51,2.5-7.23,9.88-12.9,9.88C363.12,51.51,361.3,47.24,363.48,43.08Zm4-.47a8.09,8.09,0,0,0,5-1.61c1.09-.94.88-2,.05-2a4.53,4.53,0,0,0-2.91,1.35A12.7,12.7,0,0,0,367.43,42.62Z"/>
        <path d="M377.36,43.08C379.55,39,383.08,37,386,37c1.87,0,2.86,1,3,2.13A3.85,3.85,0,0,1,387.92,42c-2.08,2.18-5.56,2.5-7.64,2.39a12.44,12.44,0,0,0-.42,1.3c-.47,1.82.05,3.8,2.65,3.8,4.32,0,9.26-6,11.39-9.36.57-.83,1-.73,1.25-.26s.16,1-.36,1.77c-1.51,2.5-7.23,9.88-12.9,9.88C377,51.51,375.18,47.24,377.36,43.08Zm4-.47a8.09,8.09,0,0,0,5-1.61c1.09-.94.88-2,.05-2a4.54,4.54,0,0,0-2.91,1.35A12.64,12.64,0,0,0,381.32,42.62Z"/>
        <path d="M394.37,39.13h-1.3c-.83,0-1.09-.31-.83-.83s.68-.52,1.56-.52h1.4l2.34-3.69a1.15,1.15,0,0,1,1.09-.62h1.92c.63,0,.78.31.36,1L399,37.78h2.34c.57,0,1.14,0,.94.73s-.83.78-1.61.78h-2.6c-1.61,2.6-3.38,5.51-4.06,6.71-1.3,2.39-.52,3.54.88,3.54,3,0,8.37-6.24,10.5-9.41.57-.83,1-.73,1.25-.26a1.52,1.52,0,0,1-.21,1.77c-1.46,2-7.33,9.88-12.43,9.88-4.06,0-5.25-3.17-3.12-6.76Z"/>
        <path d="M406.28,38.4a1.15,1.15,0,0,1,1.09-.62h2c.62,0,.73.36.36,1-.62,1.2-3.43,5.72-4.84,8.16-.94,1.66,0,2.39.78,2.39,3.54,0,8.06-5.93,10.19-9.26.57-.83,1-.73,1.25-.26s.16,1-.36,1.77c-1.51,2.5-6.45,9.88-11.54,9.88-3.28,0-4.58-3.43-2.81-6.71C403.73,42.41,406.07,38.82,406.28,38.4Zm5.36-9.21a1.91,1.91,0,0,1,2,2,1.94,1.94,0,0,1-2,2,2,2,0,0,1-2-2A2,2,0,0,1,411.63,29.2Z"/>
        <path d="M418.08,42.25c2.76-3,5.56-4.84,7.7-4.84,1.77,0,3,1,3,2.7,0,2.34-2.76,5.15-4.26,7.18-1.2,1.56-.57,2.39.21,2.39,3.54,0,8.27-6.19,10.45-9.57.57-.83,1-.68,1.2-.26.31.57.16,1-.31,1.82-1.51,2.44-6.66,10-11.75,10-2.29,0-3.64-1.2-3.64-2.91,0-2.6,1.87-4.11,4-7,.88-1.14.78-2-.16-2-1.4,0-5.51,3.12-7.9,6.45a40.79,40.79,0,0,0-2.91,4.73,1,1,0,0,1-1.09.62h-1.4c-.62,0-.78-.36-.36-1,2-3.64,4-8.32,6-12.43a1.1,1.1,0,0,1,1.09-.62h2c.57,0,.57.42.16,1.14C419.64,39.5,418.86,40.85,418.08,42.25Z"/>
        <path d="M441.06,53.17c-3,5.51-6.86,11.39-11.75,11.39a3.38,3.38,0,0,1-3.64-3.17c0-3,2.24-4.73,5.67-6.14,2.55-1.09,4.78-1.87,6.92-2.76.78-1.25,1.56-2.7,2.24-4.06-1.4,1.72-3.12,3.12-5.1,3.12-3.43,0-4.52-4.68-2.24-8.79,2.7-4.89,6.14-5.93,8.53-5.93a3.23,3.23,0,0,1,3.22,2.44l.47-.88a1.1,1.1,0,0,1,1.09-.62h2c.62,0,.78.36.42,1.09L444.34,47l-1.87,3.69A28.06,28.06,0,0,0,453.7,40.12c.57-.83,1-.68,1.25-.26.26.57.1,1-.36,1.82-1.51,2.44-4.84,7.64-13.42,11.49ZM436.85,55c-3.59,1.4-6.6,2.5-8.06,3.85-1.72,1.61-1.3,3.74.73,3.74S434.25,59.31,436.85,55Zm6.55-13.16c.78-1.56.1-3-1.25-3a4.54,4.54,0,0,0-3.07,1.46,11.89,11.89,0,0,0-3.48,5.36c-.52,2-.52,3.64.83,3.64C438.93,49.32,441.43,45.11,443.4,41.83Z"/>
        <path d="M449.49,45.84a7.77,7.77,0,0,1,.73-.94A59.66,59.66,0,0,0,455,38.09c1.4-1.92,2.18-2.55,3.07-2.7.68-.1,1.72.16,1.66,1-.05,1-1.14,1-1,1.66,0,0,1,2.76,1.56,4.58.78,2.7.57,5-1.14,6.55a13.64,13.64,0,0,0,5-4.42c.62-.83,1-.73,1.25-.31.31.57.21,1.09-.31,1.82a13,13,0,0,1-10.71,5.56C448.5,51.82,448.29,47.61,449.49,45.84Zm3.22-1.09a1.42,1.42,0,0,1-.36,2.34c-1.25.78-.52,3,1.2,3,1.46,0,2.6-1,3.33-2.65,1.2-2.76-.05-6.14-.42-8.11C455.57,40.64,454.11,42.82,452.71,44.75Z"/>
        <path d="M476.68,37.78h1.56l.1-.26c3.07-5.56,6.45-12.79,10.71-12.79,2.7,0,4,3,1,6.4a35.65,35.65,0,0,1-8.11,6.66h3.85c.62,0,1.2,0,1,.73a1.59,1.59,0,0,1-1.66,1c-.47,0-2.55,0-4.63-.05-3.85,7.33-8.11,15.76-10.66,20.65a1.14,1.14,0,0,1-1.09.78h-2c-.62,0-.73-.47-.31-1.2,2.18-3.85,6.87-12.79,10.92-20.33H476c-.88,0-1.09-.57-.88-1C475.49,37.67,475.8,37.78,476.68,37.78Zm5.67-2c1.51-1.14,3.12-2.6,4.11-3.48,4.63-4.26,3.48-5.72,2.5-5.72S486.3,28.52,482.35,35.75Z"/>
        <path d="M493.37,49.38c3.54,0,8.06-5.93,10.19-9.26.57-.83,1-.73,1.25-.26s.1,1-.36,1.77c-1.51,2.5-6.45,9.88-11.54,9.88-3.43,0-4.84-3.59-3-6.5a31.22,31.22,0,0,1,3.64-4.58c.83-1,.73-1.66-.78-1.51a7.81,7.81,0,0,1-2.08.16c-1.2,2.5-4.06,7.59-7.07,10.45a4.13,4.13,0,0,1-3.07,1.56c-1.09-.05-1.4-1-.21-1.92,3.74-2.7,6.24-6.14,8.63-10.71l-.21-.21c-.57-.73-.31-2.34.88-3.38s3.12-.05,1.72,2.65c-.05.05-.05,0,1.61-.21,2.34-.26,4.58-.62,4.63,1.82.05,1.92-3,5.2-4.68,7.49C491.76,48.18,492.07,49.38,493.37,49.38Z"/>
        <path d="M513.39,44.43c-1.61,3.38-5.41,7.07-8.74,7.07-4.37,0-5.93-4.21-3.64-8.42,2.39-4.37,6-6.08,8.68-6.08s4.52,1.46,4.52,4.42a7.19,7.19,0,0,1-.21,1.35,6.21,6.21,0,0,0,1,.05A7.46,7.46,0,0,0,520.57,40c.47-.57.88-.62,1.14-.21a1.8,1.8,0,0,1-.42,1.87,8.51,8.51,0,0,1-6.71,2.91C514.28,44.54,513.86,44.49,513.39,44.43Zm-2.18-1.09L510.9,43a2.53,2.53,0,0,1-.52-1.66,2.57,2.57,0,0,1,1.09-2.18,1.12,1.12,0,0,0-1-.47c-2.7,0-6,4.11-7,7-.73,2.13-.26,3.9,1.72,3.9S510,46.41,511.21,43.34Z"/>
        <path d="M523,41c2.18-2.29,4.16-3.59,6.08-3.59A2.58,2.58,0,0,1,532,39.91a3.23,3.23,0,0,1-.21,1.2c2.24-2.5,4.21-3.74,6.19-3.74a2.7,2.7,0,0,1,3,2.76c0,2.29-2.65,5.1-4.11,7.12-1.2,1.56-.57,2.44.31,2.44,1.35,0,4-1.51,6.5-4.84.62-.78,1-.73,1.25-.26a1.59,1.59,0,0,1-.36,1.77c-1.66,2.39-4.58,5.3-8.06,5.3-2.29,0-3.48-1.25-3.48-3,0-2.39,1.72-4.11,3.8-6.92.88-1.14.52-2.18-.42-2.18-1.4,0-3.12,1.61-5,3.9a60.26,60.26,0,0,0-4.68,7v-.05l-.21.31a1.1,1.1,0,0,1-1.09.62h-1.72c-.62,0-.73-.42-.36-1.09,2.5-4.21,3.12-5.41,4.73-8.53.62-1.25.42-2.18-.52-2.18-1.4,0-3.48,1.72-5.41,4.06a23.29,23.29,0,0,0-3.07,4.78l-1.2,2.44a1,1,0,0,1-1.09.62h-1.4c-.62,0-.78-.36-.36-1,2-3.64,4-8.32,6-12.43a1.1,1.1,0,0,1,1.09-.62h2c.57,0,.57.42.16,1.14Z"/>
        <path d="M557,39.13h-1.3c-.83,0-1.09-.31-.83-.83s.68-.52,1.56-.52h1.4l2.34-3.69a1.15,1.15,0,0,1,1.09-.62h1.92c.63,0,.78.31.36,1l-1.92,3.28h2.34c.57,0,1.14,0,.94.73s-.83.78-1.61.78h-2.6c-1.61,2.6-3.38,5.51-4.06,6.71-1.3,2.39-.52,3.54.88,3.54,3,0,8.37-6.24,10.5-9.41.57-.83,1-.73,1.25-.26a1.52,1.52,0,0,1-.21,1.77c-1.46,2-7.33,9.88-12.43,9.88-4.06,0-5.25-3.17-3.12-6.76Z"/>
        <path d="M563.62,51.4h-1.2c-.62,0-.78-.36-.42-1,4.42-7.8,8.22-14.35,12.64-21.94a1.1,1.1,0,0,1,1.09-.62h2c.62,0,.73.36.36,1s-4.89,7.75-7.28,11.7c2-1.82,4.11-3.12,6.08-3.12,1.77,0,3,1,3,2.7,0,2.34-2.76,5.15-4.21,7.18-1.2,1.56-.57,2.39.21,2.39,3.48,0,8.22-6.19,10.35-9.57.57-.83,1-.68,1.25-.26.31.57.16,1-.31,1.82-1.56,2.44-6.66,10-11.75,10-2.29,0-3.59-1.2-3.59-2.91,0-2.6,1.82-4.11,3.9-7,.83-1.14.78-2-.21-2-1.35,0-5.3,2.91-7.85,6.45-1.87,2.65-2.91,4.52-2.91,4.52A1.21,1.21,0,0,1,563.62,51.4Z"/>
        <path d="M596.59,44.59c.62-.78,1-.68,1.25-.26.31.57.21,1.09-.31,1.82-1.66,2.34-5.2,5.36-9.36,5.36-4.89,0-6.76-4.26-4.58-8.42S589.36,37,592.33,37c1.87,0,2.86,1,3,2.13A3.85,3.85,0,0,1,594.2,42c-2.08,2.18-5.56,2.5-7.59,2.39a5.68,5.68,0,0,0-.47,1.3c-.47,1.82.05,3.8,2.65,3.8C591.13,49.48,594.15,47.92,596.59,44.59Zm-8.84-2A8.07,8.07,0,0,0,592.64,41c1-.94.88-2,.05-2a4.76,4.76,0,0,0-2.86,1.35A12,12,0,0,0,587.75,42.62Z"/>
        <path d="M617.55,52.39c-5.41,0-9.41-3.59-8.22-8.74a11,11,0,0,1,10.19-8.16c2.6,0,4.11,1.4,4.11,3.9,0,2.81-2.13,5.77-4.84,7.38-1.56.94-2.44-.88-1.25-1.66,2.65-1.87,4-4.21,4-5.51s-.68-2.13-2-2.13c-1.56,0-4.42,1-6.71,4.52-2.18,3.38-1.3,8.42,4.52,8.42,6,0,9.15-6.24,12.84-13.78-5.41-.05-8.48-2.86-8.89-6.5-.47-3.85,2.18-8.37,7.38-9.62,3.48-.88,7.28-.26,10.19.1,2.24-3.28,4.58-5.62,7-5.62a2.33,2.33,0,0,1,2.6,2.39c0,2.55-2.81,5.41-7.75,5.41-.83,1.61-1.77,3.48-2.86,5.67C631.69,41,627.69,52.39,617.55,52.39Zm13.68-17.79.73-1.4c1.66-3.28,3.59-7.23,5.67-10.61-2.81-.31-6.29-.57-9.15.73s-5.1,4.89-4.26,7.9C624.83,33.51,627.37,34.87,631.22,34.61Zm10.56-13.73c2.24-.05,4.63-1.61,4.63-3.22a.71.71,0,0,0-.78-.78C644.48,16.87,643.29,18.28,641.78,20.88Z"/>
        <path d="M638.61,42.25c2.76-3,5.56-4.84,7.7-4.84,1.77,0,3,1,3,2.7,0,2.34-2.76,5.15-4.26,7.18-1.2,1.56-.57,2.39.21,2.39,3.54,0,8.27-6.19,10.45-9.57.57-.83,1-.68,1.2-.26.31.57.16,1-.31,1.82-1.51,2.44-6.66,10-11.75,10-2.29,0-3.64-1.2-3.64-2.91,0-2.6,1.87-4.11,4-7,.88-1.14.78-2-.16-2-1.4,0-5.51,3.12-7.9,6.45a40.79,40.79,0,0,0-2.91,4.73,1,1,0,0,1-1.09.62h-1.4c-.62,0-.78-.36-.36-1,2-3.64,4-8.32,6-12.43a1.1,1.1,0,0,1,1.09-.62h2c.57,0,.57.42.16,1.14C640.17,39.5,639.39,40.85,638.61,42.25Z"/>
        <path d="M656.18,39.13h-1.3c-.83,0-1.09-.31-.83-.83s.68-.52,1.56-.52H657l2.34-3.69a1.15,1.15,0,0,1,1.09-.62h1.92c.63,0,.78.31.36,1l-1.92,3.28h2.34c.57,0,1.14,0,.94.73s-.83.78-1.61.78h-2.6c-1.61,2.6-3.38,5.51-4.06,6.71-1.3,2.39-.52,3.54.88,3.54,3,0,8.37-6.24,10.5-9.41.57-.83,1-.73,1.25-.26a1.52,1.52,0,0,1-.21,1.77c-1.46,2-7.33,9.88-12.43,9.88-4.06,0-5.25-3.17-3.12-6.76Z"/>
        <path d="M669.08,51.51c-4.89,0-6.71-4.26-4.52-8.42S670.27,37,673.24,37c1.87,0,2.86,1,3,2.13A3.85,3.85,0,0,1,675.11,42c-2.08,2.18-5.56,2.5-7.64,2.39a12.44,12.44,0,0,0-.42,1.3c-.47,1.82.05,3.8,2.65,3.8,4.21,0,8.94-5.41,12.12-11.13l-.1-.16c-.57-.83-.16-2.29,1.09-3.33s3,.26,1.51,2.65l1.61-.21c2.34-.26,4.58-.62,4.63,1.82.05,1.92-3,5.2-4.68,7.49-1.14,1.56-.83,2.76.47,2.76,3.54,0,8.06-5.93,10.19-9.26.57-.83,1-.73,1.25-.26s.1,1-.36,1.77c-1.51,2.5-6.45,9.88-11.54,9.88-3.43,0-4.68-3.64-2.86-6.5a43.8,43.8,0,0,1,3.64-4.58c.88-1,.68-1.72-.94-1.51a10.6,10.6,0,0,1-2.39.16C679.74,45.58,674.48,51.51,669.08,51.51Zm-.57-8.89a8.09,8.09,0,0,0,5-1.61c1.09-.94.88-2,.05-2a4.54,4.54,0,0,0-2.91,1.35A12.64,12.64,0,0,0,668.5,42.62Z"/>
        <path d="M698.72,42.25c2.76-3,5.56-4.84,7.7-4.84,1.77,0,3,1,3,2.7,0,2.34-2.76,5.15-4.26,7.18-1.2,1.56-.57,2.39.21,2.39,3.54,0,8.27-6.19,10.45-9.57.57-.83,1-.68,1.2-.26.31.57.16,1-.31,1.82-1.51,2.44-6.66,10-11.75,10-2.29,0-3.64-1.2-3.64-2.91,0-2.6,1.87-4.11,4-7,.88-1.14.78-2-.16-2-1.4,0-5.51,3.12-7.9,6.45a40.79,40.79,0,0,0-2.91,4.73,1,1,0,0,1-1.09.62h-1.4c-.62,0-.78-.36-.36-1,2-3.64,4-8.32,6-12.43a1.1,1.1,0,0,1,1.09-.62h2c.57,0,.57.42.16,1.14C700.28,39.5,699.5,40.85,698.72,42.25Z"/>
        <path d="M713.17,43.08C715.36,39,718.89,37,721.86,37c1.87,0,2.86,1,3,2.13A3.85,3.85,0,0,1,723.73,42c-2.08,2.18-5.56,2.5-7.64,2.39a12.44,12.44,0,0,0-.42,1.3c-.47,1.82.05,3.8,2.65,3.8,4.32,0,9.26-6,11.39-9.36.57-.83,1-.73,1.25-.26s.16,1-.36,1.77c-1.51,2.5-7.23,9.88-12.9,9.88C712.81,51.51,711,47.24,713.17,43.08Zm4-.47a8.09,8.09,0,0,0,5-1.61c1.09-.94.88-2,.05-2a4.54,4.54,0,0,0-2.91,1.35A12.64,12.64,0,0,0,717.12,42.62Z"/>
        <path d="M726.38,45.42l4.26-7h-1c-.88,0-1.09-.31-.88-.78.36-.62.68-.52,1.61-.52h1.14l2.29-3.69a1.1,1.1,0,0,1,1.09-.62h1.87c.63,0,.78.36.42,1-.16.31-.94,1.61-2,3.28h2.65c.62,0,1.2,0,1,.68s-.83.78-1.66.78c-.36,0-1.56,0-2.81-.05L729.86,46c-1.2,2.18-.52,3.54.88,3.54,1.66,0,4.21-1.46,6.66-4.78.62-.83,1-.73,1.25-.31a1.64,1.64,0,0,1-.31,1.82c-1.72,2.39-5,5.25-8.48,5.25C725.81,51.51,724.77,48.18,726.38,45.42Z"/>
      </g>
    </g>
  </g>
</svg>
