<svg xmlns="http://www.w3.org/2000/svg" viewBox="0 0 1061.13 53.58">
  <defs>
    <style>
      .cls-1 {
        fill: #ea6453;
      }

      .cls-2 {
        fill: #fff;
      }
    </style>
  </defs>
  <title>h2_1</title>
  <g id="Layer_2" data-name="Layer 2">
    <g id="Layer_4" data-name="Layer 4">
      <g>
        <rect class="cls-1" width="1061.13" height="53.58"/>
        <g>
          <path class="cls-2" d="M421.66,41.81c-3.67,0-5.47-2.16-5.47-4.54a3.88,3.88,0,0,1,3.67-4.07c1.69,0,2.34,1,2.45,1.73s-.76,1-1.08.58-.43-.9-1.4-.9c-1.26,0-2.12,1.08-2.12,2.66,0,1.76,1.22,3.1,3.67,3.1,4.72,0,8-7.2,11.2-13.53A63.62,63.62,0,0,1,435.84,21c-3-.86-5.08-3.28-7.34-3.28a4.51,4.51,0,0,0-4.82,4.21,2,2,0,0,0,2.05,2.23,2.46,2.46,0,0,0,2.52-2.23.68.68,0,1,1,1.33.25,3.8,3.8,0,0,1-3.85,3.38,3.39,3.39,0,0,1-3.49-3.67c0-2.74,2.59-5.79,6.91-5.79,3.31,0,5.15,2.56,7.59,3.53,1.66-2.3,3.24-3.71,4.82-3.71a1.55,1.55,0,0,1,1.73,1.66c0,1.76-1.94,3.74-5.29,3.74h-.18a3.92,3.92,0,0,1-.22.4,63.73,63.73,0,0,0-2.81,5.83,4.4,4.4,0,0,1,2.05,1.62,10.76,10.76,0,0,1,3.89-.9c.68-1.22,1.3-2.3,2.09-3.78,3.42-6.16,6.44-8.57,10-8.57s5.62,2.16,5.62,4.64a3.88,3.88,0,0,1-3.64,4.07,2.57,2.57,0,0,1-2.7-1.73.7.7,0,0,1,1.3-.5,1.38,1.38,0,0,0,1.4.79c1,0,2.12-.83,2.12-2.63s-1.37-3.24-3.92-3.24c-4.25,0-6.44,4.54-9.14,9.58l-7.31,13.82a.73.73,0,0,1-.76.43h-1.4c-.43,0-.54-.25-.29-.72,2.09-3.92,3.46-6.52,5.79-10.66a10.24,10.24,0,0,0-3.1.9c-.68.32-.72.29-1.08-.4a3.19,3.19,0,0,0-1.55-1.55c-.72,1.55-1.55,3.13-2.59,5C428.35,39.48,425.54,41.81,421.66,41.81Zm20.27-24a.49.49,0,0,0-.54-.54c-1,0-2,1.4-2.81,2.77h0C440.19,20,441.92,18.92,441.92,17.77Z"/>
          <path class="cls-2" d="M451.32,36.34c-1.12,2.34-3.74,4.9-6,4.9-3,0-4.1-2.92-2.52-5.83s4.18-4.21,6-4.21a2.82,2.82,0,0,1,3.13,3.06,5,5,0,0,1-.14.94,4.34,4.34,0,0,0,.72,0,5.16,5.16,0,0,0,3.82-2c.32-.4.61-.43.79-.14a1.24,1.24,0,0,1-.29,1.29,5.89,5.89,0,0,1-4.64,2C451.93,36.42,451.64,36.38,451.32,36.34Zm-1.51-.76-.22-.25a1.75,1.75,0,0,1-.36-1.15,1.78,1.78,0,0,1,.76-1.51.78.78,0,0,0-.72-.32c-1.87,0-4.14,2.84-4.82,4.82-.5,1.48-.18,2.7,1.19,2.7S449,37.71,449.81,35.59Z"/>
          <path class="cls-2" d="M459.49,38.61c-1.26,1.51-2.66,2.7-4,2.7-2,0-2.88-2-1.84-4,.72-1.48,2.74-4.82,2.88-5.11a.8.8,0,0,1,.76-.43h1.4c.43,0,.5.25.25.76s-2.34,4-3.2,5.62c-.65,1.22-.14,1.76.54,1.76s1.37-.61,2.63-2.12a33.13,33.13,0,0,0,3.53-5.58.74.74,0,0,1,.76-.43h1.4c.43,0,.5.29.25.76s-2.12,3.71-3,5.62c-.54,1.22.14,1.73.79,1.73s1.8-.68,3-2.23A10.66,10.66,0,0,0,467.12,35a3.59,3.59,0,0,1-.29-3.1,1.27,1.27,0,0,1,1.29-.76c.58,0,1,.61,1,1.76a9.16,9.16,0,0,1-.43,1.94,2.14,2.14,0,0,0,1.19.29,4.55,4.55,0,0,0,3.31-1.84c.32-.4.58-.4.76-.11s.07.68-.29,1.19a5,5,0,0,1-4,2,3,3,0,0,1-1.48-.32c-1.3,2.63-3.78,5.29-6,5.29A2.53,2.53,0,0,1,459.49,38.61Z"/>
          <path class="cls-2" d="M484.22,40.2a5.82,5.82,0,0,1-3,1.12c-2.56,0-2.23-2.84-.07-2.84a12.32,12.32,0,0,1,3,.5c1.73-1.76,3.92-5,7.09-11.63,2.27-4.79,4.43-8.1,6.51-10a8.59,8.59,0,0,0-2.63-.36,11.85,11.85,0,0,0-9.21,4.9c-2.48,3.31-2.52,5.94-.94,5.94s2.74-2.16,3.17-3.13,1.66-.5,1.22.5c-.72,1.76-2.41,4.07-4.57,4-1.22,0-2.56-.79-2.56-3.28,0-2.84,3.89-10.15,12.56-10.15a12.21,12.21,0,0,1,4,.65,6.78,6.78,0,0,1,2.52-1.22c1-.22,1.15.76.32,1a5,5,0,0,0-1.62.83c2.81,1.62,4.1,4.72,4.1,8.28A17.79,17.79,0,0,1,503,31.56c-2.38,6.12-6.66,10-11.7,10A20,20,0,0,1,484.22,40.2ZM502.08,24c0-3.06-1.08-5.11-3-6.16-1.62,1.69-3.13,4.75-5.62,10.26-3.38,7.49-6.3,9.72-8.1,11.23a19.29,19.29,0,0,0,5.08.76C497.33,40.09,502.08,29.72,502.08,24Z"/>
          <path class="cls-2" d="M512.48,36.34c-1.12,2.34-3.74,4.9-6,4.9-3,0-4.1-2.92-2.52-5.83s4.18-4.21,6-4.21a2.82,2.82,0,0,1,3.13,3.06,5,5,0,0,1-.14.94,4.34,4.34,0,0,0,.72,0,5.16,5.16,0,0,0,3.82-2c.32-.4.61-.43.79-.14A1.24,1.24,0,0,1,518,34.4a5.89,5.89,0,0,1-4.64,2C513.1,36.42,512.81,36.38,512.48,36.34ZM511,35.59l-.22-.25a1.75,1.75,0,0,1-.36-1.15,1.78,1.78,0,0,1,.76-1.51.78.78,0,0,0-.72-.32c-1.87,0-4.14,2.84-4.82,4.82-.5,1.48-.18,2.7,1.19,2.7S510.14,37.71,511,35.59Z"/>
          <path class="cls-2" d="M515.29,35.41c1.51-2.84,4-4.21,6-4.21,1.3,0,2,.72,2.05,1.48a2.66,2.66,0,0,1-.76,2c-1.44,1.51-3.85,1.73-5.29,1.66a8.89,8.89,0,0,0-.29.9c-.32,1.26,0,2.63,1.84,2.63,3,0,6.41-4.17,7.88-6.48.4-.58.68-.5.86-.18s.11.72-.25,1.22c-1,1.73-5,6.84-8.93,6.84C515,41.24,513.78,38.29,515.29,35.41Zm2.74-.32A5.6,5.6,0,0,0,521.52,34c.76-.65.61-1.37,0-1.37a3.14,3.14,0,0,0-2,.94A8.74,8.74,0,0,0,518,35.08Z"/>
          <path class="cls-2" d="M523.82,37.32a5.49,5.49,0,0,1,.5-.65A41.26,41.26,0,0,0,527.64,32c1-1.33,1.51-1.76,2.12-1.87s1.19.11,1.15.68-.79.68-.68,1.15c0,0,.72,1.91,1.08,3.17.54,1.87.4,3.49-.79,4.54A9.43,9.43,0,0,0,534,36.56c.43-.58.68-.5.86-.22s.14.76-.22,1.26a9,9,0,0,1-7.42,3.85C523.14,41.46,523,38.54,523.82,37.32Zm2.23-.76a1,1,0,0,1-.25,1.62c-.86.54-.36,2.05.83,2.05a2.65,2.65,0,0,0,2.3-1.84c.83-1.91,0-4.25-.29-5.62C528,33.72,527,35.23,526.06,36.56Z"/>
          <path class="cls-2" d="M543.52,32.17a.79.79,0,0,1,.76-.43h1.4c.43,0,.5.25.25.72-.43.83-2.38,4-3.35,5.65-.65,1.15,0,1.66.54,1.66,2.45,0,5.58-4.1,7.06-6.41.4-.58.68-.5.86-.18s.11.72-.25,1.22c-1,1.73-4.46,6.84-8,6.84-2.27,0-3.17-2.38-1.94-4.64C541.75,34.94,543.37,32.46,543.52,32.17Zm3.71-6.37a1.32,1.32,0,0,1,1.37,1.37,1.34,1.34,0,0,1-1.37,1.37,1.4,1.4,0,0,1-1.4-1.37A1.37,1.37,0,0,1,547.22,25.8Z"/>
          <path class="cls-2" d="M547.87,37l3-4.86h-.68c-.61,0-.76-.22-.61-.54s.47-.36,1.12-.36h.79L553,28.71a.76.76,0,0,1,.76-.43h1.3c.43,0,.54.25.29.72-.11.22-.65,1.12-1.37,2.27h1.84c.43,0,.83,0,.68.47s-.58.54-1.15.54c-.25,0-1.08,0-1.94,0l-3.13,5.18c-.83,1.51-.36,2.45.61,2.45,1.15,0,2.92-1,4.61-3.31.43-.58.68-.5.86-.22a1.14,1.14,0,0,1-.22,1.26c-1.19,1.66-3.46,3.64-5.87,3.64C547.48,41.24,546.76,38.94,547.87,37Z"/>
          <path class="cls-2" d="M574.69,16c5.51,0,5.36,6.55,3.24,12.31a37.43,37.43,0,0,1-3.42,7.13,110.52,110.52,0,0,0,7-9.5c6-8.57,7.74-8.06,8-8.13a.58.58,0,0,1,.47,1,8.23,8.23,0,0,0-1.58,2.52c-1.62,3.82-2.66,11.12-4.28,14.51a85,85,0,0,0,5.18-7.31c3.85-6.08,6.66-10.62,11-10.62,3.56,0,4.32,3.17,3,5.25A4.3,4.3,0,0,1,599,24.9a.73.73,0,0,1-.72-.68c0-.32.22-.65.79-.61a3.06,3.06,0,0,0,3-1.26,1.91,1.91,0,0,0-1.73-3.1c-3.38,0-5.83,3.92-9.75,10-2.7,4.17-6.62,9.75-9.72,11.73-.61.4-1.48.25-1-.65a46.75,46.75,0,0,0,3.38-9.21c1-3.63,1.51-6.51,2.74-8.64-2.3,2.2-9.47,15.26-16.7,18.86a.56.56,0,0,1-.76-.25c-.22-.68.72-.4,4.43-6.8,3.24-5.58,6.84-17,1.55-17-2.88,0-5.83,3.17-7.2,5.94s-1.3,5.33.43,5.33c1.55,0,3.46-2.05,5-6.26.43-1.33,1.76-.76,1.33.43-1.84,5.11-4,7.24-6.7,7.24-3.17,0-4.1-3.74-1.55-8.17C567.71,18.49,571.05,16,574.69,16Z"/>
          <path class="cls-2" d="M590.1,35.41c1.69-3.09,4.25-4.21,6-4.21a2.81,2.81,0,0,1,3.1,3.06,4.26,4.26,0,0,1-.14,1c1.55,0,3.06-1.62,3.92-2.92-.11-.07-.14-.18-.22-.25-.4-.5-.11-1.62.76-2.34s2.05.18,1,1.84c0,0,0,0,1.12-.14,1.62-.18,3.17-.43,3.2,1.26,0,1.33-2.12,3.6-3.28,5.18-.79,1.08-.54,1.91.36,1.91,2.41,0,5.54-4.1,7-6.41.4-.58.72-.5.86-.18s.11.72-.22,1.22c-1,1.73-4.5,6.84-8,6.84-2.38,0-3.2-2.48-1.94-4.5a21.59,21.59,0,0,1,2.52-3.17c.61-.72.5-1.15-.54-1a6.3,6.3,0,0,1-1.55.11c-1,2-3,3.64-5,3.71h-.47c-1.12,2.34-3.71,4.9-6,4.9C589.52,41.24,588.55,38.29,590.1,35.41Zm7.05.18a1.89,1.89,0,0,1-.58-1.4,1.78,1.78,0,0,1,.76-1.51.71.71,0,0,0-.68-.32c-2,0-4.32,3.1-4.86,4.86-.47,1.48-.18,2.66,1.19,2.66S596.33,37.68,597.15,35.59Z"/>
          <path class="cls-2" d="M623.29,36.6c.43-.54.72-.47.86-.18s.14.76-.22,1.26c-1.15,1.62-3.31,3.71-5.72,3.74-1.58,0-2.59-.79-2.7-2a6.56,6.56,0,0,1,.94-2.52c.65-1.51-.14-2.05-1.26-1.62s-2.05,1.55-3.85,4.57a6,6,0,0,1-.54.9.76.76,0,0,1-.76.43h-.83c-.43,0-.54-.29-.29-.72,3-5.08,5.8-10.15,8.82-15.23a.74.74,0,0,1,.76-.4h1.15c.43,0,.54.22.25.72s-3.42,5.58-5,8.24c2.2-.72,3.56-2.88,5.58-2.88A1.44,1.44,0,0,1,622,33a.9.9,0,0,1-1.33.14c-.25-.22-.36-.54-.76-.54s-1.08.5-2.09,1.22a5,5,0,0,1-1,.61c1,.07,1.8.32,2.09,1.22.22.72-.43,2.05-.79,2.81-.5,1-.07,1.58.61,1.58C619.8,40,621.6,38.9,623.29,36.6Z"/>
          <path class="cls-2" d="M626.42,38.76a1.39,1.39,0,0,1,0,2.77,1.39,1.39,0,1,1,0-2.77Zm15.37-18.11c0,6.41-9.18,9.07-13,15.87-.43.79-1.48.43-1.22-.4,1.55-5.51,11.59-10.58,11.59-16.31,0-1.66-1.12-2.92-3.24-2.92-2.63,0-5.22,2-6.66,5-.83,1.84-.5,3.06.47,3.06s1.94-1,3.06-3.6c.47-1.08,1.66-.68,1.26.47-1.19,3.49-3.1,4.46-4.43,4.46-1.94,0-2.81-2-1.94-4.36,1.08-3,4.25-6.3,8.5-6.3C640.21,15.61,641.79,18.2,641.79,20.65Z"/>
        </g>
      </g>
    </g>
  </g>
</svg>
