<svg xmlns="http://www.w3.org/2000/svg" viewBox="0 0 1061.13 53.58">
  <defs>
    <style>
      .cls-1 {
        fill: #ea6453;
      }

      .cls-2 {
        fill: #fff;
      }
    </style>
  </defs>
  <title>h3_1</title>
  <g id="Layer_2" data-name="Layer 2">
    <g id="Layer_4" data-name="Layer 4">
      <g>
        <rect class="cls-1" width="1061.13" height="53.58"/>
        <g>
          <path class="cls-2" d="M488.45,41.81c-3.64,0-5.47-2.16-5.47-4.54a4,4,0,0,1,3.67-4.14,2.24,2.24,0,0,1,2.45,1.8.64.64,0,0,1-1.12.58c-.32-.43-.43-.94-1.37-.94-1.26,0-2.16,1.12-2.16,2.7,0,1.76,1.4,3.1,3.85,3.1,4.86,0,7.85-7.38,11.09-13.61,1.12-2.12,2.16-4.07,3.2-5.69-3-.9-5.11-3.35-7.38-3.35a4.66,4.66,0,0,0-5,4.43,2,2,0,0,0,2,2.2,2.57,2.57,0,0,0,2.52-2.41.7.7,0,1,1,1.37.25,3.92,3.92,0,0,1-3.89,3.53A3.46,3.46,0,0,1,488.74,22c0-3,2.74-5.9,7.05-5.9,3.38,0,5.22,2.59,7.74,3.56,1.62-2.34,3.17-3.74,4.75-3.74a1.63,1.63,0,0,1,1.8,1.66c0,1.76-2.05,3.78-5.36,3.78h-.22c-.07.18-.18.32-.25.47-1.73,3.13-2.66,5.94-5.76,12C495.54,39.62,491.8,41.81,488.45,41.81Zm20.19-24a.49.49,0,0,0-.54-.54c-.94,0-2,1.37-2.81,2.77h0C506.92,20,508.65,18.92,508.65,17.77Z"/>
          <path class="cls-2" d="M499.76,41.17h-.83c-.43,0-.54-.25-.29-.72,3.06-5.4,5.69-9.93,8.75-15.19a.76.76,0,0,1,.76-.43h1.37c.43,0,.5.25.25.72s-3.38,5.36-5,8.1c1.4-1.26,2.84-2.16,4.21-2.16A1.86,1.86,0,0,1,511,33.36c0,1.62-1.91,3.56-2.92,5-.83,1.08-.4,1.66.14,1.66,2.41,0,5.69-4.28,7.16-6.62.4-.58.72-.47.86-.18s.11.72-.22,1.26c-1.08,1.69-4.61,6.91-8.13,6.91-1.58,0-2.48-.83-2.48-2,0-1.8,1.26-2.84,2.7-4.82.58-.79.54-1.4-.14-1.4-.94,0-3.67,2-5.44,4.46-1.3,1.84-2,3.13-2,3.13A.84.84,0,0,1,499.76,41.17Z"/>
          <path class="cls-2" d="M513.62,35.41c1.51-2.84,4-4.21,6-4.21,1.3,0,2,.72,2.05,1.48a2.66,2.66,0,0,1-.76,2c-1.44,1.51-3.85,1.73-5.29,1.66a8.89,8.89,0,0,0-.29.9c-.32,1.26,0,2.63,1.84,2.63,3,0,6.41-4.17,7.88-6.48.4-.58.68-.5.86-.18s.11.72-.25,1.22c-1,1.73-5,6.84-8.93,6.84C513.37,41.24,512.11,38.29,513.62,35.41Zm2.74-.32A5.6,5.6,0,0,0,519.85,34c.76-.65.61-1.37,0-1.37a3.14,3.14,0,0,0-2,.94A8.74,8.74,0,0,0,516.35,35.08Z"/>
          <path class="cls-2" d="M527.08,34c1.51-1.58,2.88-2.48,4.21-2.48a1.78,1.78,0,0,1,2,1.76,2.24,2.24,0,0,1-.14.83c1.55-1.73,2.92-2.59,4.28-2.59a1.86,1.86,0,0,1,2.09,1.87c0,1.62-1.84,3.56-2.84,5-.83,1.08-.4,1.62.14,1.66,2.41,0,5.62-4.28,7.09-6.62.4-.58.72-.47.86-.18s.11.72-.22,1.26c-1,1.69-4.54,6.91-8.06,6.91-1.58,0-2.45-.83-2.45-2,0-1.66,1.19-2.84,2.63-4.82.61-.79.32-1.48-.32-1.48-1,0-2.16,1.12-3.46,2.7a51.27,51.27,0,0,0-3.38,5,.74.74,0,0,1-.76.4h-1.19c-.43,0-.5-.25-.25-.72,1.73-2.92,2.16-3.74,3.28-5.94.43-.83.29-1.48-.36-1.48-1,0-2.41,1.19-3.74,2.81a22.85,22.85,0,0,0-2.38,3.78c-.25.54-.4.83-.58,1.22a.71.71,0,0,1-.76.43h-1c-.43,0-.54-.25-.25-.72,1.4-2.52,2.74-5.76,4.18-8.6a.76.76,0,0,1,.76-.43h1.4c.4,0,.4.29.11.79Z"/>
          <path class="cls-2" d="M542.09,35.41c1.51-2.84,4-4.21,6-4.21,1.3,0,2,.72,2.05,1.48a2.66,2.66,0,0,1-.76,2c-1.44,1.51-3.85,1.73-5.29,1.66a8.89,8.89,0,0,0-.29.9c-.32,1.26,0,2.63,1.84,2.63,3,0,6.41-4.17,7.88-6.48.4-.58.68-.5.86-.18s.11.72-.25,1.22c-1,1.73-5,6.84-8.93,6.84C541.84,41.24,540.58,38.29,542.09,35.41Zm2.74-.32A5.6,5.6,0,0,0,548.32,34c.76-.65.61-1.37,0-1.37a3.14,3.14,0,0,0-2,.94A8.74,8.74,0,0,0,544.83,35.08Z"/>
          <path class="cls-2" d="M550.62,37.32a5.49,5.49,0,0,1,.5-.65A41.26,41.26,0,0,0,554.44,32c1-1.33,1.51-1.76,2.12-1.87s1.19.11,1.15.68-.79.68-.68,1.15c0,0,.72,1.91,1.08,3.17.54,1.87.4,3.49-.79,4.54a9.43,9.43,0,0,0,3.46-3.06c.43-.58.68-.5.86-.22s.14.76-.22,1.26A9,9,0,0,1,554,41.46C549.94,41.46,549.8,38.54,550.62,37.32Zm2.23-.76a1,1,0,0,1-.25,1.62c-.86.54-.36,2.05.83,2.05a2.65,2.65,0,0,0,2.3-1.84c.83-1.91,0-4.25-.29-5.62C554.84,33.72,553.83,35.23,552.86,36.56Z"/>
          <path class="cls-2" d="M564.66,38.75a1.39,1.39,0,0,1,0,2.77,1.39,1.39,0,1,1,0-2.77Zm1.19-2.63c1.51-3.42,7.09-14.58,9.39-19.22a.73.73,0,0,1,.76-.43h1.37c.43,0,.54.25.25.72C575.18,22.09,568.73,34,567,36.67,566.5,37.42,565.49,36.92,565.85,36.13Z"/>
        </g>
      </g>
    </g>
  </g>
</svg>
