<svg xmlns="http://www.w3.org/2000/svg" viewBox="0 0 1061.13 53.58">
  <defs>
    <style>
      .cls-1 {
        fill: #ea6453;
      }

      .cls-2 {
        fill: #fff;
      }
    </style>
  </defs>
  <title>h4_1</title>
  <g id="Layer_2" data-name="Layer 2">
    <g id="Layer_4" data-name="Layer 4">
      <g>
        <rect class="cls-1" width="1061.13" height="53.58"/>
        <g>
          <path class="cls-2" d="M481.4,33.25a17,17,0,0,1,.32-3.2c.18-1.12.22-1.19,1.3-1.12a129,129,0,0,0,15.73-.25c.36-.72.72-1.48,1.08-2.3a45.76,45.76,0,0,1,4.43-7.16,40.86,40.86,0,0,0-7.7-1.37c-1.15,4.9-3.24,7-5.76,7-4.79,0-2.45-9,5.65-9C503.28,15.86,508,19,513,19A4.78,4.78,0,0,0,517,17.23c.4-.61.72-1.08,1.08-1.12.61-.07.76.72.32,1.51-2.2,4.21-8.13,2.84-12.2,2a32.82,32.82,0,0,0-3.42,5.83c-.47,1-.9,2-1.33,2.92a26.21,26.21,0,0,0,4.1-.86c1-.32,1.22,1,.32,1.33a24.8,24.8,0,0,1-5.11,1.08c-3.49,7.56-6,11.73-12,11.73C484.13,41.64,481.4,38.61,481.4,33.25Zm16.67-3.06a127.47,127.47,0,0,1-14.87.07,15.56,15.56,0,0,0-.25,2.77c0,4.68,2.12,7.2,5.65,7.2C492.66,40.23,494.54,37.6,498.06,30.19ZM495,18v0c-5.11.76-6.16,5.54-4.07,5.54C492.63,23.49,494.36,21,495,18Z"/>
          <path class="cls-2" d="M501.59,35.41c1.51-2.84,4-4.21,6-4.21,1.3,0,2,.72,2.05,1.48a2.66,2.66,0,0,1-.76,2c-1.44,1.51-3.85,1.73-5.29,1.66a8.89,8.89,0,0,0-.29.9c-.32,1.26,0,2.63,1.84,2.63,3,0,6.41-4.17,7.88-6.48.4-.58.68-.5.86-.18s.11.72-.25,1.22c-1,1.73-5,6.84-8.93,6.84C501.34,41.24,500.08,38.29,501.59,35.41Zm2.74-.32A5.6,5.6,0,0,0,507.82,34c.76-.65.61-1.37,0-1.37a3.14,3.14,0,0,0-2,.94A8.74,8.74,0,0,0,504.33,35.08Z"/>
          <path class="cls-2" d="M519.45,32.78l.4-.61a.8.8,0,0,1,.76-.43H522c.43,0,.54.25.25.76s-2.41,4.07-3.28,5.62c-.68,1.15-.07,1.69.47,1.69,2.66,0,5.4-3.67,7.09-6.44.36-.58.68-.47.86-.18s.11.72-.22,1.26c-1.08,1.69-4.5,6.8-8,6.8a2.42,2.42,0,0,1-2.45-2,4.24,4.24,0,0,1-3.17,2c-2.84,0-3.67-3.2-2.16-6.08,1.69-3.24,4.1-4.1,5.65-4.1A2.36,2.36,0,0,1,519.45,32.78Zm-1.12,1.87c.58-1.15,0-2.16-.9-2.16a3.34,3.34,0,0,0-2.23,1,8,8,0,0,0-2.34,3.71c-.32,1.26,0,2.59,1.08,2.59C515.35,39.8,516.71,37.68,518.33,34.65Z"/>
          <path class="cls-2" d="M526.87,32.67H526c-.58,0-.76-.22-.58-.58s.47-.36,1.08-.36h1l1.62-2.56a.8.8,0,0,1,.76-.43h1.33c.43,0,.54.22.25.72l-1.33,2.27h1.62c.4,0,.79,0,.65.5s-.58.54-1.12.54h-1.8c-1.12,1.8-2.34,3.82-2.81,4.64-.9,1.66-.36,2.45.61,2.45,2.09,0,5.8-4.32,7.27-6.51.4-.58.72-.5.86-.18a1.05,1.05,0,0,1-.14,1.22c-1,1.37-5.08,6.84-8.6,6.84-2.81,0-3.64-2.2-2.16-4.68Z"/>
          <path class="cls-2" d="M547.6,32.06c-.4-.5-.11-1.62.76-2.3s2.05.14,1.08,1.8c0,0,0,0,1.12-.14,1.58-.18,3.17-.43,3.17,1.26,0,1.37-2.09,3.6-3.24,5.18-.79,1.08-.58,1.91.32,1.91,2.45,0,5.58-4.1,7.06-6.41.4-.58.68-.47.86-.18s.07.72-.25,1.26c-1,1.69-4.46,6.8-8,6.8-2.38,0-3.24-2.48-2-4.46a25,25,0,0,1,2.52-3.2c.58-.68.5-1.19-.65-1a7.36,7.36,0,0,1-1.66.11l-1,1.58c-1,1.73-4.25,7-7.23,7a2.43,2.43,0,0,1-2.3-2.48c-1.26,1.48-2.59,2.56-4,2.56-2,0-3-2-2-4,.76-1.48,2.74-4.82,2.92-5.11a.8.8,0,0,1,.76-.43h1.4c.4,0,.5.25.25.76s-2.41,4.07-3.31,5.62c-.65,1.15-.07,1.62.4,1.62s1.55-.47,2.92-1.91a21.14,21.14,0,0,0,2.27-3.06l1.62-2.59a.8.8,0,0,1,.76-.43h1.37c.43,0,.54.25.29.76s-2.37,4.07-3.28,5.62c-.65,1.15,0,1.69.43,1.69,1.22,0,3-2.2,4.46-4.36l2.2-3.31Z"/>
          <path class="cls-2" d="M556,35.41c1.51-2.84,4-4.21,6-4.21,1.3,0,2,.72,2.05,1.48a2.66,2.66,0,0,1-.76,2c-1.44,1.51-3.85,1.73-5.29,1.66a8.89,8.89,0,0,0-.29.9c-.32,1.26,0,2.63,1.84,2.63,3,0,6.41-4.17,7.88-6.48.4-.58.68-.5.86-.18s.11.72-.25,1.22c-1,1.73-5,6.84-8.93,6.84C555.77,41.24,554.51,38.29,556,35.41Zm2.74-.32A5.6,5.6,0,0,0,562.25,34c.76-.65.61-1.37,0-1.37a3.14,3.14,0,0,0-2,.94A8.74,8.74,0,0,0,558.76,35.08Z"/>
          <path class="cls-2" d="M564.56,37.32a5.49,5.49,0,0,1,.5-.65A41.26,41.26,0,0,0,568.37,32c1-1.33,1.51-1.76,2.12-1.87s1.19.11,1.15.68-.79.68-.68,1.15c0,0,.72,1.91,1.08,3.17.54,1.87.4,3.49-.79,4.54a9.43,9.43,0,0,0,3.46-3.06c.43-.58.68-.5.86-.22s.14.76-.22,1.26a9,9,0,0,1-7.42,3.85C563.87,41.46,563.73,38.54,564.56,37.32Zm2.23-.76a1,1,0,0,1-.25,1.62c-.86.54-.36,2.05.83,2.05a2.65,2.65,0,0,0,2.3-1.84c.83-1.91,0-4.25-.29-5.62C568.77,33.72,567.76,35.23,566.79,36.56Z"/>
        </g>
      </g>
    </g>
  </g>
</svg>
