<svg xmlns="http://www.w3.org/2000/svg" viewBox="0 0 1061.13 53.58">
  <defs>
    <style>
      .cls-1 {
        fill: #ea6453;
      }

      .cls-2 {
        fill: #fff;
      }
    </style>
  </defs>
  <title>h5_1</title>
  <g id="Layer_2" data-name="Layer 2">
    <g id="Layer_4" data-name="Layer 4">
      <g>
        <rect class="cls-1" width="1061.13" height="53.58"/>
        <g>
          <path class="cls-2" d="M468.26,41.81c-3.64,0-5.47-2.16-5.47-4.54a4,4,0,0,1,3.67-4.14,2.24,2.24,0,0,1,2.45,1.8.64.64,0,0,1-1.12.58c-.32-.43-.43-.94-1.37-.94-1.26,0-2.16,1.12-2.16,2.7,0,1.76,1.4,3.1,3.85,3.1C473,40.38,476,33,479.2,26.77c1.12-2.12,2.16-4.07,3.2-5.69-3-.9-5.11-3.35-7.38-3.35a4.66,4.66,0,0,0-5,4.43,2,2,0,0,0,2,2.2,2.57,2.57,0,0,0,2.52-2.41.7.7,0,1,1,1.37.25A3.92,3.92,0,0,1,472,25.72,3.46,3.46,0,0,1,468.55,22c0-3,2.74-5.9,7.05-5.9,3.38,0,5.22,2.59,7.74,3.56,1.62-2.34,3.17-3.74,4.75-3.74a1.63,1.63,0,0,1,1.8,1.66c0,1.76-2.05,3.78-5.36,3.78h-.22c-.07.18-.18.32-.25.47-1.73,3.13-2.66,5.94-5.76,12C475.35,39.62,471.61,41.81,468.26,41.81Zm20.19-24a.49.49,0,0,0-.54-.54c-.94,0-2,1.37-2.81,2.77h0C486.72,20,488.45,18.92,488.45,17.77Z"/>
          <path class="cls-2" d="M480.75,35.41c1.51-2.84,4-4.21,6-4.21,1.3,0,2,.72,2.05,1.48a2.66,2.66,0,0,1-.76,2c-1.44,1.51-3.85,1.73-5.29,1.66a8.89,8.89,0,0,0-.29.9c-.32,1.26,0,2.63,1.84,2.63,3,0,6.41-4.17,7.88-6.48.4-.58.68-.5.86-.18s.11.72-.25,1.22c-1,1.73-5,6.84-8.93,6.84C480.5,41.24,479.24,38.29,480.75,35.41Zm2.74-.32A5.6,5.6,0,0,0,487,34c.76-.65.61-1.37,0-1.37a3.14,3.14,0,0,0-2,.94A8.74,8.74,0,0,0,483.49,35.08Z"/>
          <path class="cls-2" d="M490.36,35.41c1.73-3.09,4.21-4.21,6-4.21,2.63,0,2.45,2.3,1.58,3.28-.65.72-1.44.83-1.83.47s-.29-1,.43-1.33.65-1,.07-1a2.85,2.85,0,0,0-1.94.86,7.73,7.73,0,0,0-2.63,3.74A1.91,1.91,0,0,0,494,39.84c3,0,6.41-4.17,7.88-6.48.4-.58.68-.5.86-.18s.07.72-.25,1.22c-1,1.73-5,6.84-8.93,6.84S489,37.93,490.36,35.41Z"/>
          <path class="cls-2" d="M498.82,41.17H498c-.43,0-.54-.25-.29-.72,3.06-5.4,5.69-9.93,8.75-15.19a.76.76,0,0,1,.76-.43h1.37c.43,0,.5.25.25.72s-3.38,5.36-5,8.1c1.4-1.26,2.84-2.16,4.21-2.16a1.86,1.86,0,0,1,2.09,1.87c0,1.62-1.91,3.56-2.92,5-.83,1.08-.4,1.66.14,1.66,2.41,0,5.69-4.28,7.16-6.62.4-.58.72-.47.86-.18s.11.72-.22,1.26c-1.08,1.69-4.61,6.91-8.13,6.91-1.58,0-2.48-.83-2.48-2,0-1.8,1.26-2.84,2.7-4.82.58-.79.54-1.4-.14-1.4-.94,0-3.67,2-5.44,4.46-1.3,1.84-2,3.13-2,3.13A.84.84,0,0,1,498.82,41.17Z"/>
          <path class="cls-2" d="M516,34.83c1.91-2.09,3.85-3.35,5.33-3.35a1.86,1.86,0,0,1,2.09,1.87c0,1.62-1.91,3.56-3,5-.83,1.08-.4,1.66.14,1.66,2.45,0,5.72-4.28,7.24-6.62.4-.58.68-.47.83-.18s.11.72-.22,1.26c-1,1.69-4.61,6.91-8.13,6.91-1.58,0-2.52-.83-2.52-2,0-1.8,1.3-2.84,2.74-4.82.61-.79.54-1.4-.11-1.4-1,0-3.82,2.16-5.47,4.46a28.23,28.23,0,0,0-2,3.28.71.71,0,0,1-.76.43h-1c-.43,0-.54-.25-.25-.72,1.4-2.52,2.74-5.76,4.17-8.6a.76.76,0,0,1,.76-.43h1.4c.4,0,.4.29.11.79S516.57,33.86,516,34.83Z"/>
          <path class="cls-2" d="M534.68,36.34c-1.12,2.34-3.74,4.9-6,4.9-3,0-4.1-2.92-2.52-5.83s4.18-4.21,6-4.21a2.82,2.82,0,0,1,3.13,3.06,5,5,0,0,1-.14.94,4.34,4.34,0,0,0,.72,0,5.16,5.16,0,0,0,3.82-2c.32-.4.61-.43.79-.14a1.24,1.24,0,0,1-.29,1.29,5.89,5.89,0,0,1-4.64,2C535.29,36.42,535,36.38,534.68,36.34Zm-1.51-.76-.22-.25a1.75,1.75,0,0,1-.36-1.15,1.78,1.78,0,0,1,.76-1.51.78.78,0,0,0-.72-.32c-1.87,0-4.14,2.84-4.82,4.82-.5,1.48-.18,2.7,1.19,2.7S532.34,37.71,533.16,35.59Z"/>
          <path class="cls-2" d="M541.73,28.93c2.23-3.82,4-6.23,6.23-6.23,1.84,0,2.7,1.94.68,4.43a20.85,20.85,0,0,1-6,4.9c-1.15,2-2.45,4.32-3,5.4-.83,1.55-.36,2.45.58,2.45,2.09,0,5.79-4.46,7.31-6.51.43-.54.68-.5.86-.18a1.1,1.1,0,0,1-.25,1.22c-.94,1.3-5,6.84-8.5,6.84-2.66,0-3.17-2.74-1.87-5.15C538.67,34.29,541.59,29.18,541.73,28.93Zm4.17-.61c3.46-3.28,2.88-4.43,2.09-4.43s-1.94,2-4.21,6.12A23.08,23.08,0,0,0,545.91,28.32Z"/>
          <path class="cls-2" d="M554.22,36.34c-1.12,2.34-3.74,4.9-6,4.9-3,0-4.1-2.92-2.52-5.83s4.18-4.21,6-4.21a2.82,2.82,0,0,1,3.13,3.06,5,5,0,0,1-.14.94,4.34,4.34,0,0,0,.72,0,5.16,5.16,0,0,0,3.82-2c.32-.4.61-.43.79-.14a1.24,1.24,0,0,1-.29,1.29,5.89,5.89,0,0,1-4.64,2C554.84,36.42,554.55,36.38,554.22,36.34Zm-1.51-.76-.22-.25a1.75,1.75,0,0,1-.36-1.15,1.78,1.78,0,0,1,.76-1.51.78.78,0,0,0-.72-.32c-1.87,0-4.14,2.84-4.82,4.82-.5,1.48-.18,2.7,1.19,2.7S551.88,37.71,552.71,35.59Z"/>
          <path class="cls-2" d="M562.94,42.39c-2.05,3.82-4.75,7.88-8.13,7.88a2.34,2.34,0,0,1-2.52-2.2c0-2.05,1.55-3.28,3.92-4.25,1.76-.76,3.31-1.3,4.79-1.91.54-.86,1.08-1.87,1.55-2.81A4.9,4.9,0,0,1,559,41.28c-2.37,0-3.13-3.24-1.55-6.08,1.87-3.38,4.25-4.1,5.9-4.1a2.24,2.24,0,0,1,2.23,1.69l.32-.61a.76.76,0,0,1,.76-.43H568c.43,0,.54.25.29.76l-3.13,5.62-1.3,2.56a19.43,19.43,0,0,0,7.78-7.31c.4-.58.68-.47.86-.18s.07.72-.25,1.26a19.44,19.44,0,0,1-9.29,8ZM560,43.65c-2.48,1-4.57,1.73-5.58,2.66-1.19,1.12-.9,2.59.5,2.59S558.22,46.64,560,43.65Zm4.54-9.11c.54-1.08.07-2.05-.86-2.05a3.14,3.14,0,0,0-2.12,1,8.23,8.23,0,0,0-2.41,3.71c-.36,1.37-.36,2.52.58,2.52C561.46,39.73,563.19,36.81,564.56,34.54Z"/>
          <path class="cls-2" d="M572.3,32.17a.79.79,0,0,1,.76-.43h1.4c.43,0,.5.25.25.72-.43.83-2.38,4-3.35,5.65-.65,1.15,0,1.66.54,1.66,2.45,0,5.58-4.1,7.06-6.41.4-.58.68-.5.86-.18s.11.72-.25,1.22c-1,1.73-4.46,6.84-8,6.84-2.27,0-3.17-2.38-1.94-4.64C570.53,34.94,572.15,32.46,572.3,32.17ZM576,25.8a1.32,1.32,0,0,1,1.37,1.37A1.34,1.34,0,0,1,576,28.53a1.4,1.4,0,0,1-1.4-1.37A1.37,1.37,0,0,1,576,25.8Z"/>
          <path class="cls-2" d="M577.12,35.41c1.51-2.84,4-4.21,6-4.21,1.3,0,2,.72,2.05,1.48a2.66,2.66,0,0,1-.76,2c-1.44,1.51-3.85,1.73-5.29,1.66a8.89,8.89,0,0,0-.29.9c-.32,1.26,0,2.63,1.84,2.63,3,0,6.41-4.17,7.88-6.48.4-.58.68-.5.86-.18s.11.72-.25,1.22c-1,1.73-5,6.84-8.93,6.84C576.87,41.24,575.61,38.29,577.12,35.41Zm2.74-.32A5.6,5.6,0,0,0,583.35,34c.76-.65.61-1.37,0-1.37a3.14,3.14,0,0,0-2,.94A8.74,8.74,0,0,0,579.86,35.08Z"/>
          <path class="cls-2" d="M585.65,37.32a5.49,5.49,0,0,1,.5-.65A41.26,41.26,0,0,0,589.47,32c1-1.33,1.51-1.76,2.12-1.87s1.19.11,1.15.68-.79.68-.68,1.15c0,0,.72,1.91,1.08,3.17.54,1.87.4,3.49-.79,4.54a9.43,9.43,0,0,0,3.46-3.06c.43-.58.68-.5.86-.22s.14.76-.22,1.26A9,9,0,0,1,589,41.46C585,41.46,584.82,38.54,585.65,37.32Zm2.23-.76a1,1,0,0,1-.25,1.62c-.86.54-.36,2.05.83,2.05a2.65,2.65,0,0,0,2.3-1.84c.83-1.91,0-4.25-.29-5.62C589.86,33.72,588.86,35.23,587.88,36.56Z"/>
        </g>
      </g>
    </g>
  </g>
</svg>
