<svg xmlns="http://www.w3.org/2000/svg" viewBox="0 0 1061.13 53.58">
  <defs>
    <style>
      .cls-1 {
        fill: #ea6453;
      }

      .cls-2 {
        fill: #fff;
      }
    </style>
  </defs>
  <title>h7_1</title>
  <g id="Layer_2" data-name="Layer 2">
    <g id="Layer_4" data-name="Layer 4">
      <g>
        <rect class="cls-1" width="1061.13" height="53.58"/>
        <g>
          <path class="cls-2" d="M498.71,41.71c-3.6,0-5.4-2.16-5.4-4.5a3.85,3.85,0,0,1,3.67-4c1.76,0,2.52,1,2.63,1.76s-.76,1-1.08.61-.47-1-1.51-1a2.36,2.36,0,0,0-2.23,2.63c0,1.76,1.22,3.06,3.56,3.06,5,0,7.7-7.31,11.19-13.46,1.91-3.31,4.43-7.13,7.16-9.39a7.33,7.33,0,0,0-2.7-.47,11.75,11.75,0,0,0-9.9,4.93c-2.45,3.28-2.45,6-.94,6,1.69,0,2.74-2.27,3.2-3.17.5-1.08,1.62-.54,1.22.47-.76,1.76-2.41,4-4.61,4-1.22,0-2.77-.79-2.77-3.28,0-3.42,4.82-10.15,13.53-10.15a10.12,10.12,0,0,1,4.07.79,6.79,6.79,0,0,1,2-.94c.86-.25,1.19.36.32.9a9.16,9.16,0,0,0-1.12.79,7,7,0,0,1,2.84,5.94,9.91,9.91,0,0,1-.76,3.89c-1.44,3.49-4.72,8.57-5.44,10.4s.14,2.27.83,2.27c2.05,0,5.29-4.14,6.77-6.44.4-.58.76-.47.94-.18s.11.72-.25,1.26c-1,1.69-4.28,6.8-8.06,6.8-1.91,0-3.78-1.84-2.05-5.36,1-2,2.3-4,3.49-6.08a8.72,8.72,0,0,0-3.56,1c-.58.29-.65.29-1.08-.43a3.22,3.22,0,0,0-1.66-1.58C507.68,35.37,505,41.71,498.71,41.71Zm19.4-13.35,1-1.94a8.58,8.58,0,0,0,1-4,5,5,0,0,0-2-4.25,38,38,0,0,0-6.41,9.32,4.34,4.34,0,0,1,2.23,1.76A10.64,10.64,0,0,1,518.12,28.35Z"/>
          <path class="cls-2" d="M530.83,36.42c-1.15,2.48-3.92,4.86-6.95,4.86-2.66,0-3.71-2.77-2.09-5.4,2.48-4.14,3.28-5.51,6.48-10.62a.76.76,0,0,1,.76-.43h1.4c.43,0,.54.25.29.72s-2.56,3.85-4.25,6.44a4,4,0,0,1,2.34-.83c2.09,0,2.59,1.33,2.59,3a4.22,4.22,0,0,1-.18,1.12h.36a5.16,5.16,0,0,0,3.82-2c.32-.4.61-.43.79-.14a1.24,1.24,0,0,1-.29,1.29,5.83,5.83,0,0,1-4.64,2ZM524.27,40C525.93,40,528,38,529,35.62a2,2,0,0,1,.18-3,1.3,1.3,0,0,0-.79-.25,6.23,6.23,0,0,0-4.07,3c-.36.65-.76,1.3-1.12,2C522.29,39,522.73,40,524.27,40Z"/>
          <path class="cls-2" d="M542.09,36.34c-1.12,2.34-3.74,4.9-6,4.9-3,0-4.1-2.92-2.52-5.83s4.18-4.21,6-4.21a2.82,2.82,0,0,1,3.13,3.06,5,5,0,0,1-.14.94,4.34,4.34,0,0,0,.72,0,5.16,5.16,0,0,0,3.82-2c.32-.4.61-.43.79-.14a1.24,1.24,0,0,1-.29,1.29,5.89,5.89,0,0,1-4.64,2C542.7,36.42,542.42,36.38,542.09,36.34Zm-1.51-.76-.22-.25a1.75,1.75,0,0,1-.36-1.15,1.78,1.78,0,0,1,.76-1.51.78.78,0,0,0-.72-.32c-1.87,0-4.14,2.84-4.82,4.82-.5,1.48-.18,2.7,1.19,2.7S539.75,37.71,540.58,35.59Z"/>
          <path class="cls-2" d="M553.68,32.17a.8.8,0,0,1,.76-.43h1.37c.43,0,.54.25.25.76s-2.34,4.07-3.24,5.62c-.65,1.15,0,1.66.47,1.66,2.45,0,5.58-4.1,7.06-6.41.4-.58.68-.47.86-.18s.07.72-.25,1.26c-1,1.69-4.46,6.8-8,6.8a2.52,2.52,0,0,1-2.52-2.48c-1.26,1.44-2.59,2.56-4,2.56-2,0-3-2-2-4,.76-1.48,2.74-4.82,2.92-5.11a.8.8,0,0,1,.76-.43h1.4c.4,0,.5.25.25.76s-2.41,4.07-3.31,5.62c-.65,1.15-.07,1.62.4,1.62s1.62-.5,3-1.94a18.88,18.88,0,0,0,2.2-3Z"/>
          <path class="cls-2" d="M558,37l3-4.86h-.68c-.61,0-.76-.22-.61-.54s.47-.36,1.12-.36h.79l1.58-2.56a.76.76,0,0,1,.76-.43h1.3c.43,0,.54.25.29.72-.11.22-.65,1.12-1.37,2.27H566c.43,0,.83,0,.68.47s-.58.54-1.15.54c-.25,0-1.08,0-1.94,0l-3.13,5.18c-.83,1.51-.36,2.45.61,2.45,1.15,0,2.92-1,4.61-3.31.43-.58.68-.5.86-.22a1.14,1.14,0,0,1-.22,1.26c-1.19,1.66-3.46,3.64-5.87,3.64C557.65,41.24,556.93,38.94,558,37Z"/>
        </g>
      </g>
    </g>
  </g>
</svg>
