<?xml version="1.0" encoding="iso-8859-1"?>
<!-- Generator: Adobe Illustrator 19.0.0, SVG Export Plug-In . SVG Version: 6.00 Build 0)  -->
<svg version="1.1" id="Layer_1" xmlns="http://www.w3.org/2000/svg" xmlns:xlink="http://www.w3.org/1999/xlink" x="0px" y="0px"
	 viewBox="0 0 507.2 507.2" style="enable-background:new 0 0 507.2 507.2;" xml:space="preserve">
<circle style="fill:#5E6664;" cx="253.6" cy="253.6" r="248.8"/>
<path style="fill:#2F423F;" d="M429.6,77.6c96.8,97.6,96.8,254.4,0,352c-97.6,96.8-254.4,96.8-352,0"/>
<polygon style="fill:#E5CFAC;" points="26.4,289.6 0,231.2 28.8,173.6 78.4,157.6 104,232.8 76.8,318.4 "/>
<polygon style="fill:#CCAF89;" points="26.4,289.6 48,236 28.8,173.6 78.4,157.6 104,232.8 76.8,318.4 "/>
<polygon style="fill:#E5CFAC;" points="480.8,289.6 507.2,231.2 478.4,173.6 428.8,157.6 403.2,232.8 430.4,318.4 "/>
<polygon style="fill:#CCAF89;" points="480.8,289.6 459.2,236 478.4,173.6 428.8,157.6 403.2,232.8 430.4,318.4 "/>
<polygon style="fill:#A88547;" points="463.2,373.6 253.6,497.6 44,373.6 51.2,111.2 253.6,42.4 456,111.2 "/>
<polyline style="fill:#8E6C3A;" points="253.6,10.4 456,135.2 463.2,373.6 253.6,497.6 "/>
<polygon style="fill:#A88547;" points="145.6,71.2 256,6.4 365.6,71.2 361.6,196.8 256,232.8 149.6,196.8 "/>
<polyline style="fill:#8E6C3A;" points="256,232.8 149.6,196.8 145.6,71.2 256,6.4 "/>
<polygon style="fill:#E5CFAC;" points="408,196 328.8,158.4 253.6,194.4 178.4,158.4 99.2,196 112,264 156.8,288.8 140,434.4 
	253.6,485.6 367.2,434.4 350.4,288.8 395.2,264 "/>
<g>
	<polyline style="fill:#CCAF89;" points="253.6,485.6 367.2,434.4 350.4,288.8 395.2,264 408,196 328.8,158.4 253.6,194.4 	"/>
	<polygon style="fill:#CCAF89;" points="293.6,381.6 253.6,381.6 187.2,285.6 293.6,293.6 	"/>
</g>
<ellipse style="fill:#5E6664;" cx="180" cy="233.6" rx="17.6" ry="16"/>
<path style="fill:#2F423F;" d="M192.8,222.4c7.2,6.4,7.2,16,0,22.4s-18.4,6.4-24.8,0"/>
<path style="fill:#5E6664;" d="M344.8,233.6c0,8.8-8,16-17.6,16s-17.6-7.2-17.6-16s8-16,17.6-16S344.8,224.8,344.8,233.6z"/>
<path style="fill:#2F423F;" d="M339.2,222.4c7.2,6.4,7.2,16,0,22.4s-18.4,6.4-24.8,0"/>
<polygon style="fill:#77501D;" points="187.2,285.6 253.6,328 320,285.6 "/>
<polygon style="fill:#493011;" points="240,285.6 253.6,328 320,285.6 "/>
<circle style="fill:#5E6664;" cx="253.6" cy="408" r="19.2"/>
<path style="fill:#2F423F;" d="M253.6,426.4c-10.4,0-19.2-8.8-19.2-19.2s8.8-19.2,19.2-19.2"/>
<g>
</g>
<g>
</g>
<g>
</g>
<g>
</g>
<g>
</g>
<g>
</g>
<g>
</g>
<g>
</g>
<g>
</g>
<g>
</g>
<g>
</g>
<g>
</g>
<g>
</g>
<g>
</g>
<g>
</g>
</svg>
