<svg xmlns="http://www.w3.org/2000/svg" viewBox="0 0 197.67 197.67">
  <defs>
    <style>
      .cls-1, .cls-4 {
        fill: #be242c;
      }

      .cls-2 {
        fill: #fff;
      }

      .cls-3 {
        fill: none;
        stroke: #fff;
        stroke-linecap: round;
        stroke-miterlimit: 10;
        stroke-width: 6px;
      }

      .cls-4 {
        opacity: 0.75;
      }

      .cls-5 {
        opacity: 0.9;
      }
    </style>
  </defs>
  <title>step_4</title>
  <g id="Layer_2" data-name="Layer 2">
    <g id="Layer_2-2" data-name="Layer 2">
      <g>
        <rect class="cls-1" x="4" y="4" width="189.67" height="189.67"/>
        <g>
          <path class="cls-1" d="M0,181.15l2.49,1.42a3.64,3.64,0,0,1,0,6.19l-1.24.71a2.62,2.62,0,0,0-.85.76l-.39.47v7l8-8V177.86H0Z"/>
          <path class="cls-1" d="M0,165.34l2.49,1.42a3.64,3.64,0,0,1,0,6.19L0,174.38v3.48H8V162.06H0Z"/>
          <path class="cls-1" d="M0,149.53,2.49,151a3.64,3.64,0,0,1,0,6.19L0,158.58v3.48H8V146.25H0Z"/>
          <path class="cls-1" d="M0,133.73l2.49,1.42a3.64,3.64,0,0,1,0,6.19L0,142.77v3.48H8V130.44H0Z"/>
          <path class="cls-1" d="M0,117.92l2.49,1.42a3.64,3.64,0,0,1,0,6.19L0,127v3.48H8V114.64H0Z"/>
          <path class="cls-1" d="M0,102.12l2.49,1.42a3.64,3.64,0,0,1,0,6.19L0,111.16v3.48H8V98.83H0Z"/>
          <path class="cls-1" d="M0,86.31l2.49,1.42a3.64,3.64,0,0,1,0,6.19L0,95.35v3.48H8V83H0Z"/>
          <path class="cls-1" d="M0,70.51l2.49,1.42a3.64,3.64,0,0,1,0,6.19L0,79.55V83H8V67.22H0Z"/>
          <path class="cls-1" d="M0,54.7l2.49,1.42a3.64,3.64,0,0,1,0,6.19L0,63.74v3.48H8V51.42H0Z"/>
          <path class="cls-1" d="M0,38.9l2.49,1.42a3.64,3.64,0,0,1,0,6.19L0,47.94v3.48H8V35.61H0Z"/>
          <path class="cls-1" d="M0,23.09l2.49,1.42a3.64,3.64,0,0,1,0,6.19L0,32.13v3.48H8V19.81H0Z"/>
          <path class="cls-1" d="M0,6.57A13.07,13.07,0,0,0,1.25,8l1.25.71a3.64,3.64,0,0,1,0,6.19L0,16.33v3.48H8V8L0,0Z"/>
          <path class="cls-1" d="M16.52,0,15.1,2.49a3.64,3.64,0,0,1-6.19,0L8.19,1.24A2.62,2.62,0,0,0,7.43.39L7,0H0L8,8H19.81V0Z"/>
          <path class="cls-1" d="M32.33,0,30.9,2.49a3.64,3.64,0,0,1-6.19,0L23.29,0H19.81V8H35.61V0Z"/>
          <path class="cls-1" d="M48.13,0,46.71,2.49a3.64,3.64,0,0,1-6.19,0L39.09,0H35.61V8H51.42V0Z"/>
          <path class="cls-1" d="M63.94,0,62.51,2.49a3.64,3.64,0,0,1-6.19,0L54.9,0H51.42V8H67.22V0Z"/>
          <path class="cls-1" d="M79.74,0,78.32,2.49a3.64,3.64,0,0,1-6.19,0L70.7,0H67.22V8H83V0Z"/>
          <path class="cls-1" d="M95.55,0,94.12,2.49a3.64,3.64,0,0,1-6.19,0L86.51,0H83V8H98.83V0Z"/>
          <path class="cls-1" d="M111.35,0l-1.42,2.49a3.64,3.64,0,0,1-6.19,0L102.31,0H98.83V8h15.81V0Z"/>
          <path class="cls-1" d="M127.16,0l-1.42,2.49a3.64,3.64,0,0,1-6.19,0L118.12,0h-3.48V8h15.81V0Z"/>
          <path class="cls-1" d="M143,0l-1.42,2.49a3.64,3.64,0,0,1-6.19,0L133.92,0h-3.48V8h15.81V0Z"/>
          <path class="cls-1" d="M158.77,0l-1.42,2.49a3.64,3.64,0,0,1-6.19,0L149.73,0h-3.48V8h15.81V0Z"/>
          <path class="cls-1" d="M174.58,0l-1.42,2.49a3.64,3.64,0,0,1-6.19,0L165.54,0h-3.48V8h15.81V0Z"/>
          <path class="cls-1" d="M191.1,0a13.07,13.07,0,0,0-1.43,1.25L189,2.49a3.64,3.64,0,0,1-6.19,0L181.34,0h-3.48V8h11.81l8-8Z"/>
          <path class="cls-1" d="M197.67,16.52l-2.49-1.42a3.64,3.64,0,0,1,0-6.19l1.24-.71a2.62,2.62,0,0,0,.85-.76l.39-.47V0l-8,8V19.81h8Z"/>
          <path class="cls-1" d="M197.67,32.33l-2.49-1.42a3.64,3.64,0,0,1,0-6.19l2.48-1.42V19.81h-8V35.61h8Z"/>
          <path class="cls-1" d="M197.67,48.13l-2.49-1.42a3.64,3.64,0,0,1,0-6.19l2.48-1.42V35.61h-8V51.42h8Z"/>
          <path class="cls-1" d="M197.67,63.94l-2.49-1.42a3.64,3.64,0,0,1,0-6.19l2.48-1.42V51.42h-8V67.22h8Z"/>
          <path class="cls-1" d="M197.67,79.74l-2.49-1.42a3.64,3.64,0,0,1,0-6.19l2.48-1.42V67.22h-8V83h8Z"/>
          <path class="cls-1" d="M197.67,95.55l-2.49-1.42a3.64,3.64,0,0,1,0-6.19l2.48-1.42V83h-8V98.83h8Z"/>
          <path class="cls-1" d="M197.67,111.35l-2.49-1.42a3.64,3.64,0,0,1,0-6.19l2.48-1.42V98.83h-8v15.81h8Z"/>
          <path class="cls-1" d="M197.67,127.16l-2.49-1.42a3.64,3.64,0,0,1,0-6.19l2.48-1.42v-3.48h-8v15.81h8Z"/>
          <path class="cls-1" d="M197.67,143l-2.49-1.42a3.64,3.64,0,0,1,0-6.19l2.48-1.42v-3.48h-8v15.81h8Z"/>
          <path class="cls-1" d="M197.67,158.77l-2.49-1.42a3.64,3.64,0,0,1,0-6.19l2.48-1.42v-3.48h-8v15.81h8Z"/>
          <path class="cls-1" d="M197.67,174.58l-2.49-1.42a3.64,3.64,0,0,1,0-6.19l2.48-1.42v-3.48h-8v15.81h8Z"/>
          <path class="cls-1" d="M197.67,191.1a13.07,13.07,0,0,0-1.25-1.43l-1.25-.71a3.64,3.64,0,0,1,0-6.19l2.48-1.42v-3.48h-8v11.81l8,8Z"/>
          <path class="cls-1" d="M181.15,197.67l1.42-2.49a3.64,3.64,0,0,1,6.19,0l.71,1.24a2.62,2.62,0,0,0,.76.85l.47.39h7l-8-8H177.86v8Z"/>
          <path class="cls-1" d="M165.34,197.67l1.42-2.49a3.64,3.64,0,0,1,6.19,0l1.42,2.48h3.48v-8H162.06v8Z"/>
          <path class="cls-1" d="M149.53,197.67l1.42-2.49a3.64,3.64,0,0,1,6.19,0l1.42,2.48h3.48v-8H146.25v8Z"/>
          <path class="cls-1" d="M133.73,197.67l1.42-2.49a3.64,3.64,0,0,1,6.19,0l1.42,2.48h3.48v-8H130.44v8Z"/>
          <path class="cls-1" d="M117.92,197.67l1.42-2.49a3.64,3.64,0,0,1,6.19,0l1.42,2.48h3.48v-8H114.64v8Z"/>
          <path class="cls-1" d="M102.12,197.67l1.42-2.49a3.64,3.64,0,0,1,6.19,0l1.42,2.48h3.48v-8H98.83v8Z"/>
          <path class="cls-1" d="M86.31,197.67l1.42-2.49a3.64,3.64,0,0,1,6.19,0l1.42,2.48h3.48v-8H83v8Z"/>
          <path class="cls-1" d="M70.51,197.67l1.42-2.49a3.64,3.64,0,0,1,6.19,0l1.42,2.48H83v-8H67.22v8Z"/>
          <path class="cls-1" d="M54.7,197.67l1.42-2.49a3.64,3.64,0,0,1,6.19,0l1.42,2.48h3.48v-8H51.42v8Z"/>
          <path class="cls-1" d="M38.9,197.67l1.42-2.49a3.64,3.64,0,0,1,6.19,0l1.42,2.48h3.48v-8H35.61v8Z"/>
          <path class="cls-1" d="M23.09,197.67l1.42-2.49a3.64,3.64,0,0,1,6.19,0l1.42,2.48h3.48v-8H19.81v8Z"/>
          <path class="cls-1" d="M6.57,197.67A13.07,13.07,0,0,0,8,196.42l.71-1.25a3.64,3.64,0,0,1,6.19,0l1.42,2.48h3.48v-8H8l-8,8Z"/>
        </g>
      </g>
      <rect class="cls-2" x="8.17" y="8.17" width="181.33" height="181.33"/>
      <path class="cls-3" d="M132.33,127H91.44a8.07,8.07,0,0,0-6.36,3.11L70.67,148.53A2.83,2.83,0,0,1,66,146.38V129.79A2.83,2.83,0,0,0,63.17,127h0a9.83,9.83,0,0,1-9.83-9.83v-47a12,12,0,0,1,12-12h67a12,12,0,0,1,12,12V115A12,12,0,0,1,132.33,127Z"/>
      <path class="cls-4" d="M161.83,53.39a17.56,17.56,0,0,0-17.56-17.56H52.39A17.56,17.56,0,0,0,34.83,53.39v91.88a17.56,17.56,0,0,0,17.56,17.56h91.88a17.56,17.56,0,0,0,17.56-17.56Zm-18,61.56c0,6.63-4.12,12.88-10.75,12.88H92.19a7.7,7.7,0,0,0-6.36,2.67L71,148.75a3.25,3.25,0,0,1-5.13-2.38V129.79a3,3,0,0,0-3-2.83,10,10,0,0,1-10-9.83v-47c0-6.63,6.62-11.33,13.25-11.33h67c6.63,0,10.75,4.71,10.75,11.33Z"/>
      <g class="cls-5">
        <circle class="cls-1" cx="77.22" cy="93.69" r="4.92"/>
        <circle class="cls-1" cx="98.83" cy="93.69" r="4.92"/>
        <circle class="cls-1" cx="120.44" cy="93.69" r="4.92"/>
      </g>
    </g>
  </g>
</svg>
