<?xml version="1.0" encoding="utf-8"?>
<!-- Generator: Adobe Illustrator 16.0.0, SVG Export Plug-In . SVG Version: 6.00 Build 0)  -->
<!DOCTYPE svg PUBLIC "-//W3C//DTD SVG 1.1//EN" "http://www.w3.org/Graphics/SVG/1.1/DTD/svg11.dtd">
<svg version="1.1" id="Layer_1" xmlns="http://www.w3.org/2000/svg" xmlns:xlink="http://www.w3.org/1999/xlink" x="0px" y="0px"
	 width="55px" height="100px" viewBox="0 0 55 100" enable-background="new 0 0 55 100" xml:space="preserve">
<g opacity="0.35">
	<path d="M27.404,54.646c6.563,0,10.842-2.75,11.557-15.542H15.732C16.487,51.854,20.96,54.646,27.404,54.646z"/>
	<g>
		<path d="M24.628,33.025c1.901-1.9,1.901-4.978,0-6.878c-1.901-1.896-4.977-1.896-6.875,0c-1.714,1.718-1.878,4.387-0.5,6.285
			l-1.056,2.14l2.138-1.054C20.238,34.904,22.914,34.741,24.628,33.025z"/>
		<path d="M13.031,19.498c-1.333-1.333-3.497-1.333-4.832,0c-1.331,1.339-1.331,3.499,0,4.836c1.204,1.199,3.083,1.312,4.414,0.347
			l1.501,0.746l-0.739-1.509C14.35,22.581,14.234,20.704,13.031,19.498z"/>
		<path d="M19.241,12.178c0.849-0.852,0.849-2.235,0-3.091c-0.856-0.848-2.236-0.848-3.085,0c-0.77,0.771-0.841,1.97-0.228,2.826
			l-0.472,0.955l0.962-0.468C17.271,13.02,18.467,12.945,19.241,12.178z"/>
	</g>
</g>
<path fill="#F7901E" d="M43.127,4.138v7.404c-1.521-1.97-3.088-3.448-4.715-4.611l-5.457,5.455
	c8.643,2.855,10.043,12.751,10.043,22.668c0,11.751-1.922,23.508-15.594,23.508c-13.663,0-15.711-11.757-15.711-23.508
	c0-0.474,0.011-0.947,0.016-1.423L2.81,42.534c0.686,7.351,2.65,14.002,7.345,18.708c3.327,3.322,8.82,5.623,15.207,5.623
	c6.771,0,12.523-1.661,17.636-8.176v9.839c0,10.731-5.113,19.285-17.252,19.285c-7.282,0-10.472-2.168-15.075-6.258l-5.999,5.876
	c6.637,6.001,11.875,8.431,21.331,8.431c16.482,0,26.187-11.37,26.187-26.957V4.138H43.127z"/>
</svg>
